<svg width="143" height="31" viewBox="0 0 143 31" fill="none" xmlns="http://www.w3.org/2000/svg">
<path d="M14.6393 0.0353947C13.5421 0.183966 12.5536 0.64682 11.7421 1.39539C11.0564 2.03538 10.5421 2.89252 10.2736 3.85823L10.125 4.4068V15.4639V26.5209L10.2564 27.0295C10.7364 28.9323 12.1421 30.3381 14.0507 30.8466C14.525 30.9723 14.5421 30.9723 20.6964 30.9952C24.7478 31.0066 27.0449 30.9952 27.382 30.9552C28.0849 30.8695 28.4963 30.7609 29.062 30.4866C30.5706 29.7723 31.5991 28.4695 31.9306 26.8638C32.022 26.4124 32.0391 26.0695 32.0391 24.0467V21.7495H32.2563C32.5934 21.7495 33.382 21.5381 33.8391 21.3267C35.3134 20.6467 36.3363 19.4124 36.7363 17.8296L36.8677 17.321V10.8639V4.4068L36.7191 3.85823C36.1991 1.99538 34.8277 0.641106 32.942 0.138252L32.4677 0.0125389L23.7249 0.00111008C18.9192 -0.00460434 14.8278 0.0125389 14.6393 0.0353947ZM32.5477 3.6068C32.9249 3.81823 33.262 4.22394 33.382 4.61822C33.5134 5.06393 33.5134 16.721 33.382 17.1667C33.262 17.561 32.9249 17.9667 32.5477 18.1781L32.2391 18.3496H23.4963H14.7535L14.445 18.1781C14.1135 17.9953 13.8164 17.6696 13.6564 17.3153C13.5593 17.1096 13.5535 16.6867 13.5364 11.0125C13.5193 4.27537 13.5021 4.58965 13.8907 4.08108C14.1021 3.8068 14.3764 3.6068 14.7193 3.4868C14.885 3.42394 16.5992 3.41252 23.5821 3.42394L32.2391 3.43537L32.5477 3.6068ZM14.0507 21.6467L14.525 21.7724L21.5706 21.7895L28.6106 21.8124V24.0009C28.6106 26.4809 28.6049 26.5266 28.182 26.9952C28.022 27.1781 27.8106 27.3266 27.5877 27.4295L27.2506 27.5781L20.9992 27.5666L14.7535 27.5495L14.4393 27.3724C14.2564 27.2695 14.0335 27.0752 13.9078 26.9152C13.5364 26.4295 13.525 26.3438 13.525 23.7952C13.525 22.5438 13.5364 21.521 13.5478 21.521C13.565 21.521 13.7878 21.5781 14.0507 21.6467Z" fill="#FB474C"/>
<path d="M83.3844 0.279989C83.0934 0.435181 82.7636 0.784361 82.6666 1.05594C82.5503 1.34693 82.4727 4.76113 82.4727 9.04828C82.4727 17.2152 82.5697 18.1269 83.5784 19.9892C84.3543 21.4054 85.8287 22.7827 87.4776 23.578C88.7579 24.2182 89.1265 24.3152 90.7366 24.3734C92.1721 24.451 92.8123 24.3734 93.8598 24.063C98.2051 22.7245 100.863 18.5343 100.126 14.1502C99.1169 8.19473 92.7541 4.89692 87.4 7.53517C86.7404 7.84555 86.1584 8.11713 86.0808 8.11713C86.0226 8.11713 85.9645 6.50702 85.9645 4.54774V0.97835L85.3631 0.473978C84.6841 -0.0885887 84.1798 -0.146786 83.3844 0.279989ZM93.3942 10.6002C97.6232 12.4625 97.759 18.1851 93.627 20.3966C93.0256 20.7264 92.5213 20.8234 91.2991 20.8234C89.5726 20.8234 88.6997 20.4742 87.594 19.3879C85.5183 17.351 85.6153 13.7428 87.8073 11.6089C89.3399 10.0958 91.4155 9.72724 93.3942 10.6002Z" fill="#FB474C"/>
<path d="M48.3507 6.85625C46.7794 7.30243 45.5379 8.05898 44.3739 9.28111C42.0655 11.6866 41.9297 12.3849 41.9297 22.1426V29.8827L42.4923 30.4453C43.0936 31.0466 43.792 31.163 44.5097 30.7751C45.3633 30.3289 45.4021 30.0961 45.4215 26.3909C45.4215 24.451 45.4797 22.8603 45.5767 22.8603C45.6543 22.8603 45.9841 23.0349 46.2944 23.2483C47.245 23.8885 49.2237 24.4122 50.6592 24.4122C54.2868 24.4122 57.6816 22.065 59.0201 18.6314C59.6409 17.0407 59.6409 13.9368 59.0201 12.3461C58.1277 10.0571 56.0715 8.00079 53.8212 7.14724C52.3469 6.58467 49.8056 6.44888 48.3507 6.85625ZM52.8512 10.6002C54.5196 11.3374 55.7611 13.0445 56.0133 14.965C56.2848 16.9049 55.0433 19.2133 53.1616 20.2415C52.2693 20.7458 51.9201 20.8234 50.6592 20.8234C49.4176 20.8234 49.0685 20.7458 48.3119 20.2997C46.0616 18.9805 44.9753 16.3229 45.6931 13.9174C46.5854 10.7942 49.8638 9.28111 52.8512 10.6002Z" fill="#FB474C"/>
<path d="M61.9682 6.75926C60.9595 7.16664 60.9207 7.49642 60.9789 15.7991L61.0371 23.4811L61.5803 23.9467C62.298 24.5674 63.268 24.5674 63.9857 23.9467L64.5289 23.4811L64.5871 15.7991C64.6259 9.10653 64.6065 8.03959 64.3349 7.53522C63.8887 6.68167 62.9382 6.37129 61.9682 6.75926Z" fill="#FB474C"/>
<path d="M67.1872 6.75922C66.5665 7.01141 66.1203 8.13654 66.3919 8.8155C66.4889 9.12589 67.5752 10.5808 68.778 12.0939C70.0001 13.607 71.0864 15.0231 71.2222 15.2365C71.4356 15.5663 71.2222 15.9155 69.0107 18.6701C67.6528 20.3384 66.4695 21.9097 66.3919 22.1425C65.8099 23.6556 67.6916 25.0524 69.0301 24.1212C69.2435 23.966 70.4075 22.6081 71.6102 21.1144C72.8129 19.6013 73.8605 18.4373 73.938 18.5343C74.0156 18.6119 75.0244 19.8729 76.1883 21.3084C77.3328 22.7439 78.4192 24.0242 78.5938 24.16C78.749 24.2958 79.2145 24.4122 79.6219 24.4122C81.038 24.4122 81.7946 22.8797 80.9798 21.6964C80.8052 21.4248 79.6219 19.9311 78.361 18.3597L76.0719 15.5081L78.6908 12.2491C80.9992 9.39747 81.3096 8.9125 81.3096 8.29173C81.3096 6.99201 79.6995 6.11906 78.652 6.85622C78.4386 7.01141 77.2747 8.36933 76.0719 9.86304C74.8886 11.3568 73.8411 12.5789 73.7829 12.5595C73.7053 12.5595 72.9099 11.5895 71.9982 10.4256C69.5345 7.2248 68.8749 6.56524 68.196 6.58463C67.8856 6.58463 67.4394 6.66223 67.1872 6.75922Z" fill="#FB474C"/>
<path d="M107.556 6.85618C104.239 7.78732 101.872 10.4644 101.29 13.9368C100.592 18.1269 102.9 22.3559 106.722 23.869C108.196 24.4509 110.66 24.5673 112.289 24.1212C116.285 23.0348 119.001 19.1551 118.691 14.9261C118.458 11.3761 116.247 8.38869 112.968 7.14716C111.533 6.58459 108.953 6.4488 107.556 6.85618ZM111.339 10.348C112.677 10.7553 113.841 11.6865 114.559 12.9668C115.083 13.898 115.16 14.2083 115.16 15.4887C115.16 16.6914 115.063 17.1182 114.637 17.9329C111.998 22.9572 104.763 21.1919 104.743 15.5081C104.724 13.122 106.043 11.1433 108.119 10.4256C109.379 9.97939 110.058 9.97939 111.339 10.348Z" fill="#FB474C"/>
<path d="M118.342 7.12784C117.701 7.7874 117.604 8.56336 118.109 9.28112C118.283 9.5527 119.486 11.0658 120.747 12.6371C122.803 15.2172 123.017 15.5469 122.784 15.8379C120.631 18.3792 117.954 21.968 117.857 22.4141C117.74 23.0349 118.012 23.7721 118.536 24.16C118.904 24.451 119.99 24.4898 120.456 24.2376C120.631 24.1406 121.795 22.7827 123.017 21.2308C124.239 19.6789 125.286 18.418 125.345 18.418C125.403 18.418 126.198 19.4073 127.149 20.6101C129.806 24.0437 130.194 24.4122 131.106 24.4122C132.231 24.4122 133.124 23.2871 132.813 22.259C132.736 22.0456 131.63 20.5325 130.349 18.9224C129.05 17.2928 127.925 15.8573 127.808 15.7409C127.692 15.5663 128.371 14.5576 130.214 12.2491C132.561 9.33931 132.813 8.95133 132.813 8.25298C132.813 6.93385 131.436 6.1579 130.252 6.81746C130.02 6.95325 128.856 8.27238 127.672 9.76609C126.47 11.2598 125.422 12.4819 125.345 12.4819C125.248 12.4819 124.2 11.2598 123.017 9.76609C121.814 8.27238 120.65 6.95325 120.437 6.81746C119.7 6.41008 118.962 6.52648 118.342 7.12784Z" fill="#FB474C"/>
</svg>
