<svg width="116" height="32" viewBox="0 0 116 32" fill="none" xmlns="http://www.w3.org/2000/svg">
<path d="M4.28018 0.0365295C3.23993 0.189898 2.30263 0.667684 1.53329 1.44039C0.883136 2.10102 0.395521 2.98581 0.140871 3.98267L0 4.54895V15.9626V27.3764L0.124612 27.9013C0.579726 29.8657 1.91253 31.3166 3.72212 31.8415C4.17181 31.9714 4.18807 31.9714 10.0231 31.9949C13.8645 32.0067 16.0426 31.9949 16.3622 31.9536C17.0286 31.8651 17.4187 31.7532 17.955 31.47C19.3853 30.7327 20.3607 29.3879 20.6748 27.7302C20.7614 27.2643 20.7778 26.9104 20.7778 24.8223V22.4512H20.9836C21.3033 22.4512 22.051 22.2329 22.4845 22.0146C23.8822 21.3126 24.852 20.0386 25.2313 18.4046L25.356 17.8797V11.2144V4.54895L25.2151 3.98267C24.722 2.05975 23.4218 0.661777 21.6338 0.14272L21.1841 0.012941L12.8946 0.00114595C8.33821 -0.0047613 4.45896 0.0129405 4.28018 0.0365295ZM21.2599 3.72313C21.6176 3.94138 21.9371 4.36018 22.051 4.76718C22.1757 5.22726 22.1757 17.2604 22.051 17.7204C21.9371 18.1275 21.6176 18.5462 21.2599 18.7644L20.9674 18.9415H12.6779H4.38853L4.09595 18.7644C3.78173 18.5758 3.49999 18.2396 3.34828 17.8737C3.25619 17.6615 3.25076 17.2249 3.2345 11.3678C3.21826 4.41326 3.202 4.7377 3.57041 4.21271C3.77088 3.92959 4.03095 3.72313 4.35603 3.59926C4.51314 3.53438 6.13852 3.52259 12.7592 3.53438L20.9674 3.54618L21.2599 3.72313ZM3.72212 22.3448L4.17181 22.4746L10.8521 22.4924L17.527 22.516V24.775C17.527 27.3352 17.5215 27.3822 17.1207 27.866C16.969 28.0546 16.7685 28.208 16.5572 28.3142L16.2375 28.4675L10.3104 28.4557L4.38853 28.4381L4.09055 28.2553C3.91718 28.1492 3.70588 27.9485 3.58667 27.7833C3.2345 27.2821 3.22367 27.1936 3.22367 24.5628C3.22367 23.271 3.2345 22.2151 3.24536 22.2151C3.2616 22.2151 3.47289 22.2741 3.72212 22.3448Z" fill="white"/>
<path d="M69.076 0.289088C68.8001 0.449285 68.4874 0.809727 68.3954 1.09007C68.2851 1.39044 68.2115 4.91477 68.2115 9.3402C68.2115 17.7706 68.3034 18.7118 69.2599 20.6341C69.9956 22.0959 71.3935 23.5177 72.9569 24.3387C74.1708 24.9995 74.5203 25.0996 76.0469 25.1597C77.4079 25.2398 78.0149 25.1597 79.0081 24.8393C83.1281 23.4576 85.648 19.1323 84.949 14.6067C83.9926 8.45912 77.9597 5.05494 72.8833 7.77828C72.2579 8.09867 71.7061 8.37902 71.6326 8.37902C71.5774 8.37902 71.5222 6.71698 71.5222 4.6945V1.00997L70.952 0.489334C70.3083 -0.0913785 69.8301 -0.151452 69.076 0.289088ZM78.5667 10.9422C82.5763 12.8646 82.7051 18.7719 78.7874 21.0547C78.2172 21.3951 77.739 21.4952 76.5803 21.4952C74.9433 21.4952 74.1156 21.1348 73.0672 20.0134C71.0992 17.9108 71.1911 14.1862 73.2695 11.9835C74.7226 10.4216 76.6906 10.0411 78.5667 10.9422Z" fill="white"/>
<path d="M35.8583 7.07741C34.3685 7.53798 33.1914 8.31894 32.0878 9.58049C29.899 12.0636 29.7703 12.7845 29.7703 22.8569V30.8467L30.3037 31.4274C30.8739 32.0481 31.536 32.1683 32.2165 31.7678C33.0258 31.3072 33.0626 31.0669 33.081 27.2422C33.081 25.2398 33.1362 23.5978 33.2282 23.5978C33.3017 23.5978 33.6144 23.778 33.9087 23.9983C34.81 24.6591 36.686 25.1997 38.0471 25.1997C41.4866 25.1997 44.7053 22.7768 45.9745 19.2324C46.563 17.5904 46.563 14.3865 45.9745 12.7444C45.1284 10.3815 43.1787 8.25886 41.0451 7.37778C39.6473 6.79707 37.2378 6.6569 35.8583 7.07741ZM40.1255 10.9422C41.7073 11.7032 42.8844 13.4653 43.1235 15.4478C43.381 17.4502 42.2039 19.8331 40.4198 20.8945C39.5737 21.4151 39.2426 21.4952 38.0471 21.4952C36.87 21.4952 36.5389 21.4151 35.8216 20.9545C33.688 19.5929 32.658 16.8495 33.3385 14.3664C34.1846 11.1425 37.293 9.58049 40.1255 10.9422Z" fill="white"/>
<path d="M48.77 6.9773C47.8136 7.39781 47.7768 7.73823 47.832 16.3088L47.8871 24.2386L48.4021 24.7192C49.0827 25.3599 50.0023 25.3599 50.6829 24.7192L51.1979 24.2386L51.253 16.3088C51.2898 9.40027 51.2714 8.29892 51.0139 7.77828C50.5909 6.8972 49.6896 6.57681 48.77 6.9773Z" fill="white"/>
<path d="M53.7177 6.97729C53.1291 7.23761 52.7061 8.39904 52.9636 9.0999C53.0555 9.42029 54.0855 10.9222 55.2259 12.4841C56.3846 14.046 57.4146 15.5078 57.5434 15.7281C57.7457 16.0685 57.5434 16.429 55.4466 19.2725C54.1591 20.9946 53.0371 22.6166 52.9636 22.8569C52.4118 24.4188 54.1959 25.8605 55.465 24.8994C55.6673 24.7392 56.7709 23.3374 57.9112 21.7956C59.0516 20.2336 60.0448 19.0322 60.1184 19.1323C60.192 19.2124 61.1484 20.514 62.252 21.9958C63.3372 23.4776 64.3672 24.7992 64.5327 24.9394C64.6798 25.0796 65.1213 25.1997 65.5075 25.1997C66.8502 25.1997 67.5675 23.6178 66.795 22.3963C66.6295 22.1159 65.5075 20.5741 64.312 18.9521L62.1416 16.0085L64.6247 12.6443C66.8134 9.70063 67.1077 9.20002 67.1077 8.55923C67.1077 7.21758 65.5811 6.31648 64.5879 7.07741C64.3855 7.23761 63.282 8.63933 62.1416 10.1813C61.0196 11.7232 60.0264 12.9847 59.9713 12.9647C59.8977 12.9647 59.1436 11.9635 58.2791 10.762C55.9432 7.45788 55.3178 6.77705 54.6741 6.79707C54.3798 6.79707 53.9568 6.87717 53.7177 6.97729Z" fill="white"/>
<path d="M91.9935 7.07741C88.8483 8.03859 86.6044 10.8021 86.0526 14.3865C85.3905 18.7118 87.5792 23.0771 91.2026 24.639C92.6005 25.2398 94.9364 25.3599 96.4814 24.8994C100.27 23.778 102.845 19.7731 102.551 15.4077C102.33 11.7432 100.234 8.65936 97.1251 7.37778C95.7641 6.79707 93.3178 6.6569 91.9935 7.07741ZM95.5801 10.6819C96.8492 11.1024 97.9528 12.0636 98.6334 13.3852C99.13 14.3464 99.2035 14.6668 99.2035 15.9884C99.2035 17.23 99.1116 17.6705 98.7069 18.5115C96.2055 23.6979 89.3449 21.8757 89.3265 16.0085C89.3081 13.5454 90.5589 11.5029 92.5269 10.762C93.7224 10.3015 94.3662 10.3015 95.5801 10.6819Z" fill="white"/>
<path d="M102.22 7.35776C101.613 8.0386 101.521 8.83958 101.999 9.58049C102.165 9.86083 103.305 11.4228 104.5 13.0448C106.45 15.7081 106.652 16.0485 106.432 16.3489C104.39 18.9721 101.852 22.6766 101.76 23.1372C101.65 23.778 101.907 24.5389 102.404 24.9394C102.753 25.2398 103.783 25.2798 104.225 25.0195C104.39 24.9194 105.494 23.5177 106.652 21.9157C107.811 20.3137 108.804 19.0121 108.86 19.0121C108.915 19.0121 109.669 20.0334 110.57 21.2749C113.09 24.8193 113.458 25.1997 114.322 25.1997C115.389 25.1997 116.235 24.0383 115.941 22.977C115.867 22.7567 114.819 21.1948 113.605 19.5328C112.373 17.8507 111.306 16.3689 111.196 16.2488C111.085 16.0685 111.729 15.0273 113.476 12.6443C115.702 9.64056 115.941 9.24007 115.941 8.51919C115.941 7.15751 114.635 6.35653 113.513 7.03737C113.292 7.17754 112.189 8.53921 111.067 10.0812C109.926 11.6231 108.933 12.8846 108.86 12.8846C108.768 12.8846 107.774 11.6231 106.652 10.0812C105.512 8.53921 104.409 7.17754 104.206 7.03737C103.507 6.61685 102.808 6.737 102.22 7.35776Z" fill="white"/>
</svg>
