<svg width="249" height="230" viewBox="0 0 249 230" fill="none" xmlns="http://www.w3.org/2000/svg">
<g clip-path="url(#clip0)">
<path d="M211.393 107.133C162.813 79.0818 84.3033 79.0818 36.0333 107.133C-12.2367 135.185 -11.9745 180.662 36.6058 208.708C85.1861 236.754 163.701 236.759 211.966 208.708C260.23 180.656 259.979 135.185 211.393 107.133Z" fill="#F5F5F5"/>
<path d="M228.937 156.457C232.521 154.392 238.31 154.392 241.874 156.457C245.437 158.522 245.415 161.877 241.831 163.948C238.246 166.018 232.457 166.018 228.894 163.948C225.331 161.877 225.352 158.538 228.937 156.457Z" fill="#E0E0E0"/>
<path d="M127.02 159.48L120.391 150.47C119.722 149.561 118.865 148.806 117.878 148.257C116.891 147.709 115.797 147.38 114.671 147.292L104.902 146.543L89.3859 137.111L95.1909 133.756C95.2672 133.708 95.33 133.641 95.3735 133.562C95.417 133.483 95.4398 133.394 95.4398 133.304C95.4398 133.214 95.417 133.125 95.3735 133.046C95.33 132.967 95.2672 132.9 95.1909 132.852L92.7779 131.477C92.3023 131.205 91.7637 131.062 91.2157 131.062C90.6676 131.062 90.1291 131.205 89.6534 131.477L32.7534 164.376C32.6772 164.424 32.6144 164.491 32.5709 164.57C32.5273 164.649 32.5045 164.737 32.5045 164.828C32.5045 164.918 32.5273 165.007 32.5709 165.086C32.6144 165.165 32.6772 165.232 32.7534 165.28L35.1075 166.639C35.5848 166.915 36.1264 167.06 36.6778 167.06C37.2292 167.06 37.7709 166.915 38.2481 166.639L62.9449 152.375L78.252 161.155L80.253 166.789C80.869 168.518 82.0049 170.015 83.5049 171.073C85.0049 172.131 86.7956 172.7 88.6315 172.701H102.917L112.611 178.297L136.035 164.681L127.02 159.48Z" fill="#E0E0E0"/>
<path d="M214.175 151.166C198.692 142.231 173.669 142.231 158.287 151.166C144.692 159.063 143.183 171.294 153.696 180.207C145.211 179.672 136.426 181.277 129.946 185.06C118.577 191.667 118.636 202.379 130.08 208.986C141.524 215.594 160.042 215.588 171.384 208.986C180.426 203.727 182.229 195.873 176.831 189.554C189.864 191.443 204.208 189.436 214.363 183.54C229.745 174.605 229.664 160.111 214.175 151.166Z" fill="#E0E0E0"/>
<path d="M34.4388 175.841C30.3619 173.487 23.7704 173.487 19.7203 175.841C15.6701 178.195 15.6915 182.015 19.7684 184.37C23.8453 186.724 30.4368 186.724 34.487 184.37C38.5371 182.015 38.5211 178.195 34.4388 175.841Z" fill="#E0E0E0"/>
<path d="M140.839 26.751C140.663 26.5637 140.492 26.3711 140.304 26.1731L140.192 26.0447C139.908 25.7184 139.657 25.3866 139.368 25.0442L139.282 24.9319C139.068 24.659 138.865 24.3968 138.662 24.0919L138.571 23.9688C138.378 23.6906 138.191 23.4338 138.009 23.1235C137.961 23.0539 137.918 22.9844 137.875 22.9148C137.726 22.6794 137.581 22.444 137.442 22.2032C137.409 22.1553 137.378 22.1052 137.351 22.0534C137.191 21.7806 137.035 21.5184 136.886 21.2241L136.779 21.0101C136.661 20.7908 136.548 20.5661 136.436 20.3414L136.329 20.1166C136.19 19.8331 136.062 19.5495 135.933 19.2606L135.885 19.1375C135.773 18.8754 135.666 18.6025 135.564 18.3564L135.473 18.121C135.355 17.8107 135.243 17.5004 135.141 17.1901C135.141 17.1901 135.141 17.1419 135.115 17.1151C135.008 16.7941 134.911 16.4731 134.82 16.1521L134.772 15.9702C134.665 15.5957 134.574 15.2212 134.494 14.852C134.494 14.7664 134.462 14.6861 134.44 14.6059L134.36 14.1672C134.36 14.0762 134.323 13.9852 134.312 13.8889C134.312 13.7391 134.264 13.5893 134.243 13.4395C134.221 13.2897 134.216 13.263 134.205 13.172C134.162 12.851 134.136 12.53 134.109 12.2143C134.109 12.1448 134.109 12.0752 134.109 12.011C134.109 11.6846 134.077 11.3583 134.077 11.0373C134.077 10.8179 134.077 10.5985 134.077 10.3899V10.1491C134.077 10.0207 134.077 9.88695 134.109 9.7639C134.141 9.64084 134.109 9.60339 134.136 9.52314C134.162 9.44288 134.136 9.27702 134.178 9.15932C134.221 9.04161 134.21 8.99346 134.221 8.91321C134.232 8.83295 134.259 8.69384 134.28 8.58684C134.301 8.47983 134.317 8.42098 134.333 8.33538C134.35 8.24977 134.382 8.13742 134.403 8.03576C134.424 7.93411 134.451 7.87526 134.473 7.795C134.494 7.71475 134.526 7.60774 134.558 7.51679L134.638 7.28138C134.671 7.19577 134.697 7.10482 134.735 7.01921C134.772 6.93361 134.799 6.87476 134.826 6.79985C134.852 6.72495 134.895 6.634 134.933 6.55374C134.97 6.47349 135.002 6.41464 135.04 6.34508C135.077 6.27553 135.115 6.18992 135.157 6.11502L135.275 5.92241L135.404 5.70305L135.532 5.52114C135.58 5.45694 135.623 5.38739 135.676 5.32318C135.73 5.25898 135.767 5.21083 135.815 5.15198C135.864 5.09312 135.912 5.02892 135.965 4.97007C136.019 4.91121 136.067 4.86306 136.115 4.80956L136.276 4.6437L136.436 4.49924L136.607 4.34944L136.779 4.22103L136.96 4.08727L137.137 3.96957C137.688 3.62562 138.294 3.38114 138.929 3.24728C137.726 4.6009 137.019 6.66075 137.009 9.31448C137.009 9.63549 137.009 9.96186 137.041 10.2882C137.041 10.3578 137.041 10.422 137.041 10.4915C137.041 10.8072 137.094 11.1282 137.137 11.4492C137.137 11.5402 137.164 11.6311 137.174 11.7167C137.185 11.8023 137.217 12.0164 137.244 12.1662C137.271 12.316 137.276 12.3695 137.298 12.4711L137.378 12.9098C137.378 12.9901 137.415 13.0704 137.431 13.156C137.512 13.5251 137.602 13.8996 137.704 14.2742C137.725 14.3356 137.743 14.3981 137.758 14.4614C137.849 14.7771 137.945 15.0981 138.052 15.4191C138.052 15.4191 138.052 15.4726 138.079 15.494C138.18 15.8097 138.293 16.12 138.41 16.425C138.442 16.5052 138.469 16.5855 138.501 16.6604C138.603 16.9225 138.71 17.1954 138.822 17.4415L138.87 17.5646C138.999 17.8535 139.127 18.137 139.266 18.4206C139.299 18.4955 139.336 18.5704 139.373 18.6453C139.486 18.87 139.598 19.0947 139.716 19.3195L139.823 19.5281C139.973 19.8063 140.128 20.0631 140.288 20.3574C140.315 20.4109 140.347 20.4591 140.379 20.5126C140.518 20.748 140.663 20.9887 140.813 21.2241L140.941 21.4275C141.128 21.711 141.316 21.9946 141.508 22.2728L141.599 22.3959C141.802 22.6848 142.006 22.963 142.22 23.2412L142.305 23.3535C142.573 23.696 142.84 24.0277 143.129 24.354L143.236 24.4825L143.771 25.0656L143.803 25.0977C143.991 25.2957 144.183 25.4936 144.376 25.6809C144.413 25.7237 144.456 25.7612 144.499 25.804C144.75 26.0447 145.002 26.2855 145.264 26.5155L145.334 26.5798C145.601 26.8152 145.869 27.0345 146.147 27.2539L146.307 27.3769C146.575 27.5856 146.842 27.7836 147.131 27.9762L147.276 28.0725C147.57 28.2651 147.864 28.4523 148.159 28.6075C148.453 28.7627 148.635 28.8697 148.87 28.9927L149.068 29.089L149.603 29.3351L149.79 29.4154L150.283 29.6026L150.406 29.6454C150.609 29.715 150.812 29.7792 151.01 29.8327L151.363 29.9183L151.524 29.9611C151.695 29.9986 151.861 30.0253 152.027 30.0521C152.275 30.0924 152.525 30.1174 152.776 30.127H152.926C153.145 30.127 153.359 30.127 153.573 30.127H153.68C153.85 30.1159 154.02 30.0963 154.188 30.0681H154.343L154.504 30.0307C154.107 30.4821 153.639 30.8653 153.118 31.1649L153.065 31.1917H153.027C152.894 31.2666 152.754 31.3308 152.615 31.395L152.471 31.4538C152.325 31.5145 152.175 31.568 152.021 31.6143H151.941C151.765 31.6625 151.583 31.7053 151.406 31.7374H151.262C151.096 31.7374 150.935 31.7802 150.764 31.7962H150.636C150.427 31.7962 150.213 31.7962 149.999 31.7962H149.86H149.507L149.1 31.7481L148.843 31.6999L148.597 31.6518L148.447 31.6143H148.405L148.089 31.5394C147.891 31.4806 147.693 31.4217 147.495 31.3522L147.372 31.3094L146.874 31.1221L146.698 31.0472C146.52 30.9723 146.341 30.8921 146.163 30.8065L146.045 30.7476C146.015 30.7366 145.986 30.7222 145.96 30.7048C145.724 30.5871 145.489 30.464 145.248 30.3249C145.007 30.1858 144.659 29.9665 144.371 29.7899H144.328L144.221 29.7204C143.943 29.5277 143.686 29.3298 143.397 29.1211L143.295 29.0409L143.236 28.9981C142.963 28.7787 142.701 28.554 142.423 28.3239C142.407 28.311 142.393 28.2967 142.38 28.2811H142.354C142.091 28.0564 141.818 27.8157 141.588 27.5749L141.465 27.4518C141.273 27.2646 141.08 27.0666 140.893 26.8687L140.839 26.751Z" fill="#EBEBEB"/>
<path d="M154.349 20.6463V21.3312L156.286 22.4547L156.291 21.7645L154.349 20.6463Z" fill="white"/>
<path d="M138.646 6.13638L138.346 6.5537L140.026 8.64565L140.326 8.21763L138.646 6.13638Z" fill="white"/>
<path d="M157.934 23.0592C157.934 30.159 152.888 33.0214 146.698 29.4795C140.508 25.9377 135.543 17.2435 135.559 10.1437C135.575 3.04392 140.604 0.181534 146.794 3.7234C152.985 7.26527 157.955 15.9594 157.934 23.0592ZM141.669 16.2056C141.716 16.3558 141.814 16.4846 141.947 16.5694C141.983 16.5914 142.023 16.6043 142.065 16.6068L146.816 16.9813C146.849 16.9909 146.884 16.9893 146.916 16.9767C146.948 16.9641 146.975 16.9413 146.992 16.9118L150.101 11.6418C150.129 11.5489 150.132 11.45 150.108 11.3557C150.085 11.2614 150.036 11.1754 149.967 11.1068C149.929 11.0622 149.884 11.0243 149.833 10.9944C149.726 10.9356 149.619 10.9409 149.566 11.0319L146.511 16.2163L141.829 15.8471C141.68 15.8471 141.605 15.9969 141.669 16.2109V16.2056ZM150.807 11.5562L151.781 10.1865L151.246 9.54448L150.31 10.9302L150.845 11.5722L150.807 11.5562ZM151.246 28.8964L151.781 28.8536L150.764 26.3389L150.229 26.3817L151.192 28.875L151.246 28.8964ZM138.614 17.6983L140.299 17.5538L140.005 16.7834L138.314 16.9278L138.614 17.6983ZM154.847 27.0719L155.146 26.6493L153.466 24.5573L153.167 24.98L154.847 27.0719ZM138.646 6.11497L138.346 6.53229L140.026 8.62424L140.326 8.20157L138.646 6.11497ZM153.493 16.4196L155.178 16.2751L154.879 15.51L153.193 15.6491L153.493 16.4196ZM142.257 4.32798L141.722 4.37079L142.685 6.864L143.22 6.8212L142.252 4.32798H142.257ZM142.204 23.6638L143.183 22.2888L142.648 21.6521L141.669 23.0218L142.204 23.6638ZM139.144 12.5353V11.8665L137.201 10.7483V11.4331L139.144 12.5567V12.5353ZM156.291 21.7698L154.349 20.6463V21.3364L156.291 22.4547V21.7698ZM146.42 27.3983L147.014 27.7407V25.5096L146.42 25.1619V27.3983ZM147.078 5.80465L146.484 5.46224V7.72004L147.078 8.06781V5.8314" fill="#E0E0E0"/>
<path d="M146.478 5.46225L146.473 7.69331L147.067 8.04107L147.072 5.80467L146.478 5.46225Z" fill="white"/>
<path d="M151.283 9.53917L150.309 10.9088L150.823 11.5509L151.802 10.1812L151.283 9.53917Z" fill="white"/>
<path d="M154.879 15.51L153.193 15.6491L153.488 16.4195L155.178 16.2751L154.879 15.51Z" fill="white"/>
<path d="M153.466 24.5573L153.167 24.98L154.847 27.0719L155.146 26.6492L153.466 24.5573Z" fill="white"/>
<path d="M150.781 26.3389L150.267 26.3817L151.23 28.875L151.749 28.8322L150.781 26.3389Z" fill="white"/>
<path d="M146.425 25.1618L146.414 27.3983L147.014 27.7407L147.019 25.5043L146.425 25.1618Z" fill="white"/>
<path d="M142.664 21.6521L141.69 23.0218L142.204 23.6638L143.178 22.2888L142.664 21.6521Z" fill="white"/>
<path d="M139.999 16.7834L138.314 16.9278L138.608 17.6982L140.299 17.5484L139.999 16.7834Z" fill="white"/>
<path d="M137.201 10.743L137.196 11.4332L139.143 12.5567V11.8666L137.201 10.743Z" fill="white"/>
<path d="M142.257 4.32265L141.744 4.3708L142.707 6.86402L143.226 6.82122L142.257 4.32265Z" fill="white"/>
<path d="M146.746 16.2805C146.711 16.2584 146.67 16.2455 146.629 16.243H146.532L141.851 15.8738C141.701 15.8738 141.626 16.0236 141.69 16.2377C141.737 16.3879 141.836 16.5167 141.969 16.6015C142.004 16.6236 142.044 16.6364 142.086 16.6389L146.837 17.0134C146.987 17.0134 147.057 16.869 146.992 16.655C146.958 16.5046 146.871 16.3717 146.746 16.2805Z" fill="white"/>
<path d="M149.855 10.9891C149.748 10.9303 149.641 10.9356 149.587 11.0266L146.532 16.211H146.629C146.67 16.2135 146.711 16.2263 146.746 16.2484C146.879 16.3323 146.976 16.4617 147.019 16.6122C147.083 16.8262 147.019 16.9867 146.864 16.9707C146.897 16.9803 146.932 16.9786 146.964 16.9661C146.996 16.9535 147.023 16.9306 147.041 16.9011L150.149 11.6311C150.177 11.5382 150.18 11.4393 150.156 11.3451C150.133 11.2508 150.084 11.1647 150.015 11.0961C149.969 11.051 149.914 11.0148 149.855 10.9891Z" fill="#F5F5F5"/>
<path d="M154.408 31.7962L154.584 31.6571C154.65 31.6062 154.713 31.5507 154.771 31.4912C154.83 31.443 154.889 31.3949 154.943 31.3414L155.119 31.1595L155.28 30.9883C155.339 30.9259 155.395 30.8598 155.446 30.7903C155.494 30.7315 155.547 30.6726 155.595 30.6084C155.644 30.5442 155.697 30.4639 155.745 30.3944C155.793 30.3248 155.842 30.266 155.884 30.1964C155.927 30.1269 155.981 30.0413 156.023 29.961C156.066 29.8808 156.114 29.8219 156.152 29.7524C156.189 29.6828 156.237 29.5865 156.28 29.5009L156.398 29.2762L156.51 29.0087C156.542 28.9284 156.58 28.8535 156.612 28.7733C156.644 28.693 156.682 28.5807 156.714 28.4844C156.746 28.388 156.778 28.3185 156.805 28.2382C156.831 28.158 156.863 28.0349 156.89 27.9333C156.917 27.8316 156.944 27.7621 156.965 27.6711C156.986 27.5802 157.019 27.4625 157.04 27.3554L157.104 27.0772C157.104 26.9649 157.142 26.8472 157.163 26.7348L157.211 26.4566L157.259 26.0607L157.291 25.8092L157.324 25.3545V25.1351C157.324 24.9068 157.324 24.6714 157.324 24.4289C157.324 24.0811 157.324 23.7333 157.291 23.3588C157.289 23.3357 157.289 23.3124 157.291 23.2893C157.265 22.8987 157.233 22.5028 157.179 22.1015V21.9677L157.083 21.3204C157.083 21.2134 157.045 21.1063 157.024 20.994C156.992 20.8388 156.965 20.6783 156.933 20.5178V20.4429C156.745 19.5489 156.505 18.6665 156.216 17.7999C155.83 16.6338 155.365 15.4952 154.825 14.3918L154.793 14.3222C154.483 13.6962 154.156 13.0756 153.803 12.471L153.707 12.3052C153.546 12.0323 153.38 11.7702 153.215 11.5026L153.097 11.3154C152.637 10.6038 152.155 9.91896 151.642 9.26088C151.139 8.61528 150.604 7.99644 150.037 7.40434C149.828 7.17963 149.614 6.96562 149.4 6.74626L149.293 6.64996C149.015 6.37174 148.731 6.11493 148.437 5.84742H148.405C148.105 5.57991 147.795 5.31239 147.484 5.07698L147.319 4.94323C147.024 4.71852 146.73 4.5045 146.425 4.3012L146.393 4.27444C146.2 4.14604 146.008 4.01763 145.815 3.89993C145.623 3.78222 145.483 3.69127 145.312 3.59496C145.055 3.44515 144.777 3.3114 144.547 3.18299C143.817 2.80973 143.052 2.50868 142.263 2.28415L142.054 2.23065L141.722 2.15039L141.492 2.10759L141.182 2.05409H141.155H140.93L140.534 2.01129H140.502H140.379C140.092 1.99523 139.805 1.99523 139.518 2.01129H139.395C139.213 2.01129 139.031 2.04339 138.86 2.07014C138.607 2.10658 138.357 2.16021 138.111 2.23065H138.068H138.02C137.854 2.28415 137.693 2.343 137.533 2.4072L137.458 2.43931C137.239 2.53561 137.019 2.63727 136.811 2.75497L139.775 1.03219L139.839 0.994736L139.919 0.951933C140.064 0.87703 140.213 0.802127 140.363 0.737924C140.391 0.721529 140.419 0.707221 140.449 0.695121H140.518C140.697 0.623784 140.875 0.559581 141.053 0.502512C141.252 0.445429 141.454 0.398995 141.658 0.363406H141.728H141.824C142.001 0.331877 142.179 0.310442 142.359 0.299203H142.45H142.477C142.71 0.285804 142.944 0.285804 143.177 0.299203H143.247H143.477H143.638C143.798 0.299203 143.964 0.331305 144.13 0.358057L144.665 0.459711L144.836 0.502512L145.184 0.588116H145.216C145.43 0.646969 145.649 0.711173 145.869 0.786077L146.002 0.839578C146.179 0.898431 146.356 0.967985 146.537 1.04289L146.612 1.06964L146.746 1.12849C146.933 1.20875 147.126 1.2997 147.319 1.39065L147.538 1.49766C147.789 1.62607 148.073 1.75982 148.303 1.90963C148.533 2.05944 148.94 2.29485 149.255 2.50886L149.416 2.61586C149.715 2.81917 150.015 3.03318 150.309 3.25789L150.475 3.39165C150.775 3.62706 151.069 3.86782 151.358 4.12464C151.385 4.14497 151.411 4.1683 151.433 4.19419C151.716 4.4403 151.968 4.69711 152.262 4.96463L152.342 5.03953L152.396 5.09303C152.605 5.29634 152.808 5.505 153.011 5.72436L153.043 5.75647C153.236 5.96513 153.423 6.17378 153.61 6.38779L153.664 6.44665L153.728 6.5269C154.033 6.88002 154.333 7.23849 154.622 7.59695V7.62906C154.645 7.65628 154.666 7.68487 154.686 7.71466C154.918 8.01427 155.142 8.31924 155.36 8.62955L155.43 8.72051C155.44 8.73537 155.449 8.75155 155.456 8.76866C155.67 9.06292 155.874 9.36789 156.072 9.6782C156.088 9.70876 156.108 9.73745 156.13 9.76381L156.211 9.90292C156.371 10.1544 156.526 10.4379 156.682 10.668L156.751 10.7857C156.753 10.8017 156.753 10.8179 156.751 10.8339C156.928 11.1335 157.093 11.4331 157.254 11.7327L157.291 11.8076L157.372 11.9574L157.741 12.685C157.741 12.7332 157.789 12.7867 157.816 12.8349C157.843 12.883 157.843 12.8991 157.859 12.9258C158.003 13.2361 158.147 13.5464 158.281 13.8568C158.291 13.8897 158.304 13.9219 158.319 13.9531C158.442 14.2366 158.554 14.5202 158.666 14.8037C158.666 14.8519 158.704 14.8947 158.725 14.9429C158.747 14.991 158.752 15.0178 158.763 15.0606C158.891 15.3923 159.014 15.7293 159.127 16.0664V16.1253C159.244 16.4819 159.351 16.8386 159.448 17.1953L159.485 17.3291C159.487 17.3522 159.487 17.3755 159.485 17.3986C159.592 17.8052 159.694 18.2065 159.779 18.6078C159.782 18.6434 159.782 18.6792 159.779 18.7148L159.811 18.8753C159.844 19.0305 159.87 19.191 159.902 19.3461C159.934 19.5013 159.94 19.5655 159.961 19.6778C159.983 19.7902 160.009 20.0042 160.031 20.1647C160.031 20.2396 160.058 20.3145 160.068 20.3948C160.066 20.4143 160.066 20.4341 160.068 20.4536C160.111 20.8014 160.143 21.1492 160.17 21.4916C160.17 21.5665 160.17 21.636 160.17 21.7109C160.17 22.064 160.207 22.4118 160.207 22.781C160.207 26.5957 158.848 29.2762 156.682 30.5389L153.717 32.2616L153.905 32.1386C153.969 32.1011 154.033 32.0637 154.092 32.0209L154.408 31.7962Z" fill="#EBEBEB"/>
<path d="M133.173 10.4807C133.173 18.153 138.523 27.4999 145.227 31.3467C148.683 33.3424 151.808 33.4868 154.017 32.069C154.081 32.0315 154.146 31.9941 154.204 31.9513L154.408 31.8015L154.584 31.6624C154.651 31.6115 154.713 31.5561 154.772 31.4965C154.83 31.4484 154.889 31.4002 154.943 31.3467L155.119 31.1648L155.28 30.9936C155.339 30.9312 155.395 30.8651 155.446 30.7956C155.494 30.7368 155.547 30.6779 155.596 30.6137C155.644 30.5495 155.697 30.4693 155.745 30.3997C155.793 30.3302 155.842 30.2713 155.884 30.2018C155.927 30.1322 155.981 30.0466 156.024 29.9664C156.066 29.8861 156.115 29.8272 156.152 29.7577C156.189 29.6881 156.238 29.5918 156.28 29.5062L156.398 29.2815L156.51 29.014C156.543 28.9338 156.58 28.8588 156.612 28.7786C156.644 28.6983 156.682 28.586 156.714 28.4897C156.746 28.3934 156.778 28.3238 156.805 28.2436C156.831 28.1633 156.864 28.0403 156.89 27.9386C156.917 27.8369 156.944 27.7674 156.965 27.6764C156.987 27.5855 157.019 27.4678 157.04 27.3608L157.104 27.0826C157.104 26.9702 157.142 26.8525 157.163 26.7401L157.211 26.4619L157.259 26.066L157.292 25.8146L157.324 25.3598V25.1404C157.324 24.9121 157.324 24.6767 157.324 24.4342C157.324 24.0864 157.324 23.7386 157.292 23.3641V23.2946C157.265 22.904 157.233 22.5081 157.179 22.1068V21.9731L157.083 21.3257C157.083 21.2187 157.045 21.1117 157.024 20.9993C157.003 20.887 156.965 20.6837 156.933 20.5231V20.4482C156.745 19.5543 156.505 18.6718 156.216 17.8052C155.83 16.6392 155.365 15.5005 154.825 14.3971L154.793 14.3275C154.483 13.7016 154.156 13.0809 153.803 12.4764L153.707 12.3105C153.546 12.0376 153.381 11.7755 153.215 11.508L153.097 11.3207C152.637 10.6091 152.155 9.92429 151.642 9.26621C151.139 8.62061 150.604 8.00176 150.037 7.40967C149.828 7.18496 149.614 6.97095 149.4 6.75159L149.293 6.65528C149.015 6.37707 148.731 6.12025 148.437 5.85274H148.405C148.105 5.58523 147.795 5.31772 147.485 5.08231C147.425 5.04071 147.368 4.99606 147.313 4.94855C147.019 4.72384 146.725 4.50983 146.42 4.30652L146.388 4.27977C146.195 4.15136 146.003 4.02295 145.81 3.90525C145.617 3.78754 145.478 3.69659 145.307 3.60028C145.05 3.45048 144.772 3.31672 144.542 3.18831C143.811 2.81505 143.046 2.514 142.257 2.28947L142.038 2.23597L141.706 2.15571C141.626 2.15571 141.546 2.12361 141.466 2.10756L141.155 2.05406L140.904 2.02196L140.508 1.97916H140.353C140.066 1.9631 139.778 1.9631 139.491 1.97916H139.352C139.17 1.97916 138.988 2.01126 138.817 2.03801C138.564 2.07446 138.314 2.12808 138.068 2.19852H137.977C137.811 2.25202 137.651 2.31087 137.49 2.37507L137.405 2.40718C137.185 2.50348 136.966 2.60514 136.757 2.72284C134.537 3.9748 133.183 6.64993 133.173 10.4807ZM140.872 26.7883L140.84 26.7508C140.663 26.5636 140.492 26.371 140.305 26.173L140.192 26.0446C139.909 25.7182 139.657 25.3865 139.368 25.0441L139.283 24.9318C139.069 24.6535 138.865 24.3967 138.662 24.0864L138.571 23.9634C138.378 23.6851 138.191 23.4283 138.009 23.118C137.961 23.0485 137.918 22.9789 137.875 22.9094C137.726 22.6793 137.581 22.4385 137.442 22.1978C137.409 22.1498 137.378 22.0998 137.351 22.048C137.191 21.7751 137.035 21.5129 136.886 21.2187L136.779 21.0047C136.661 20.7853 136.549 20.5606 136.436 20.3359L136.329 20.1112C136.19 19.8276 136.062 19.544 135.933 19.2551L135.885 19.1321C135.773 18.8699 135.666 18.5971 135.564 18.3509L135.473 18.1155C135.356 17.8052 135.243 17.4949 135.141 17.1846C135.141 17.1846 135.142 17.1364 135.115 17.1097C135.008 16.7887 134.911 16.4677 134.82 16.1466L134.772 15.9647C134.665 15.5902 134.574 15.2157 134.494 14.8465C134.494 14.7609 134.462 14.6807 134.441 14.6004L134.36 14.1617C134.36 14.0707 134.323 13.9798 134.312 13.8835C134.302 13.7872 134.259 13.5678 134.237 13.4073C134.216 13.2468 134.211 13.2307 134.2 13.1398C134.157 12.8188 134.13 12.4978 134.104 12.1821C134.104 12.1125 134.104 12.043 134.104 11.9788C134.104 11.6524 134.071 11.3261 134.071 11.005C134.071 10.7857 134.071 10.5663 134.071 10.3577V10.1169C134.071 9.98849 134.071 9.85474 134.104 9.73168C134.136 9.60862 134.104 9.57117 134.13 9.49092C134.157 9.41066 134.13 9.2448 134.173 9.1271C134.216 9.00939 134.205 8.96124 134.216 8.88099C134.227 8.80073 134.253 8.66163 134.275 8.55462C134.296 8.44762 134.312 8.38876 134.328 8.30316C134.344 8.21756 134.376 8.1052 134.398 8.00354C134.419 7.90189 134.446 7.84304 134.467 7.76278C134.489 7.68253 134.521 7.57553 134.553 7.48457L134.633 7.24916C134.665 7.16355 134.692 7.0726 134.73 6.987C134.767 6.90139 134.794 6.84254 134.82 6.76764C134.847 6.69273 134.89 6.60178 134.927 6.52152C134.965 6.44127 134.997 6.38242 135.035 6.31286C135.072 6.24331 135.109 6.15771 135.152 6.0828L135.27 5.8902L135.398 5.67083L135.527 5.48893C135.575 5.42472 135.618 5.35517 135.671 5.29097C135.725 5.22676 135.762 5.17861 135.81 5.11976C135.858 5.0609 135.907 4.9967 135.96 4.93785C136.014 4.879 136.062 4.83084 136.11 4.77734L136.27 4.61148L136.431 4.46703L136.602 4.31722L136.773 4.18881L136.955 4.05506L137.132 3.93735C137.682 3.5934 138.289 3.34892 138.924 3.21507C140.727 2.82985 142.91 3.25252 145.264 4.61148C151.438 8.17475 156.436 16.8208 156.414 23.9206C156.414 26.5957 155.703 28.6288 154.499 29.9824C154.102 30.4339 153.634 30.817 153.113 31.1167L153.06 31.1434C152.91 31.2237 152.755 31.2986 152.599 31.3681L152.455 31.427C152.309 31.4876 152.159 31.5411 152.006 31.5875H151.925C151.743 31.6356 151.556 31.6784 151.39 31.7159H151.246C151.08 31.7159 150.919 31.7587 150.748 31.7747H150.62C150.411 31.7747 150.192 31.7747 149.972 31.7747H149.833H149.48L149.074 31.7266L148.817 31.6784L148.571 31.6303C148.506 31.6303 148.442 31.5982 148.378 31.5821L148.062 31.5072C147.648 31.3894 147.241 31.2483 146.843 31.0846L146.666 31.0096C146.447 30.9133 146.233 30.817 146.013 30.7047C145.983 30.6937 145.954 30.6793 145.928 30.6619C145.692 30.5442 145.457 30.4211 145.216 30.282C144.975 30.1429 144.628 29.9235 144.339 29.747H144.296C143.948 29.5116 143.6 29.2601 143.263 28.9979L143.204 28.9552C142.915 28.7251 142.627 28.4897 142.348 28.2382H142.322C142.059 28.0135 141.787 27.7727 141.556 27.532L141.433 27.4089C141.251 27.1842 141.059 26.9809 140.872 26.7883Z" fill="white"/>
<path d="M218.225 51.239L218.188 63.7372L216.674 64.6199L216.717 50.3669L218.225 51.239Z" fill="#F0F0F0"/>
<path d="M234.544 73.1804L234.538 74.9299L216.674 64.62L218.188 63.7372L234.544 73.1804Z" fill="#F5F5F5"/>
<path d="M214.839 65.6633L236.368 78.092L236.422 59.639L214.897 47.2103L214.839 65.6633ZM216.679 64.5933L216.717 50.3402L218.225 51.2123L234.581 60.6876L234.544 73.1858V74.9353L216.679 64.5933Z" fill="#E0E0E0"/>
<path d="M214.892 47.2103L216.406 46.3329L237.931 58.7561L236.416 59.6389L214.892 47.2103Z" fill="#F5F5F5"/>
<path d="M237.93 58.7562L237.877 77.2092L236.363 78.092L236.416 59.639L237.93 58.7562Z" fill="#F0F0F0"/>
<path d="M223.421 55.9847L218.964 59.4998L218.953 62.9294L233.784 71.4898L233.795 68.0603L230.97 62.4478L228.428 64.4167L229.327 67.2042L228.027 64.727L223.421 55.9847Z" fill="#E0E0E0"/>
<path d="M228.294 57.7128C227.599 57.3115 227.026 57.6379 227.026 58.4404C227.05 58.8774 227.176 59.3026 227.396 59.6812C227.615 60.0597 227.921 60.3808 228.289 60.618C228.985 61.0246 229.552 60.6982 229.557 59.8957C229.533 59.4581 229.407 59.0323 229.187 58.653C228.968 58.2736 228.662 57.9515 228.294 57.7128Z" fill="#E0E0E0"/>
<path d="M218.867 25.9163L218.83 38.4145L217.316 39.2919L217.358 25.0442L218.867 25.9163Z" fill="#F0F0F0"/>
<path d="M235.186 47.8523L235.18 49.6072L217.316 39.2919L218.83 38.4144L235.186 47.8523Z" fill="#F5F5F5"/>
<path d="M215.502 40.3566L237.026 52.7853L237.08 34.3322L215.534 21.8875L215.502 40.3566ZM217.337 39.2866L217.38 25.0388L218.867 25.9109L235.223 35.3541L235.186 47.847V49.6019L217.337 39.2866Z" fill="#E0E0E0"/>
<path d="M215.534 21.8875L217.048 21.0047L238.572 33.4333L237.053 34.3108L215.534 21.8875Z" fill="#F5F5F5"/>
<path d="M238.572 33.4333L238.519 51.8864L237.005 52.7638L237.053 34.3108L238.572 33.4333Z" fill="#F0F0F0"/>
<path d="M224.063 30.662L219.601 34.1717L219.595 37.6012L234.426 46.167L234.437 42.7375L231.607 37.1197L229.071 39.094L229.969 41.8814L228.664 39.4043L224.063 30.662Z" fill="#E0E0E0"/>
<path d="M228.937 32.3901C228.236 31.9888 227.669 32.3098 227.669 33.1124C227.691 33.5497 227.816 33.9755 228.035 34.3549C228.253 34.7344 228.559 35.0566 228.926 35.2953C229.627 35.6965 230.194 35.3755 230.194 34.573C230.172 34.1357 230.046 33.7099 229.828 33.3304C229.609 32.951 229.304 32.6287 228.937 32.3901Z" fill="#E0E0E0"/>
<path d="M173.503 11.5241L205.535 30.0467C206.076 30.3601 206.527 30.8101 206.84 31.3518C207.154 31.8935 207.32 32.5079 207.322 33.1338V65.3423C207.304 65.9582 207.124 66.5585 206.801 67.0831C206.478 67.6077 206.023 68.0382 205.481 68.3314C204.939 68.6245 204.329 68.7701 203.713 68.7535C203.098 68.7369 202.497 68.5587 201.971 68.2368L188.596 60.297L188.307 60.7625C188.307 60.7625 188.28 60.7893 188.264 60.8053H188.232C187.697 61.1531 186.793 61.6453 186.589 61.7523C186.542 61.7678 186.49 61.7642 186.445 61.7422C186.4 61.7202 186.366 61.6816 186.349 61.6346L185.182 58.3281L169.918 49.757C169.374 49.446 168.921 48.9966 168.607 48.4545C168.292 47.9124 168.126 47.2968 168.126 46.6699V14.4186C168.126 11.8505 171.903 10.6038 173.503 11.5241Z" fill="#F7B22C"/>
<path opacity="0.2" d="M188.259 60.7626C188.259 60.7626 188.232 60.7893 188.216 60.8054H188.184C187.649 61.1531 186.745 61.6454 186.541 61.7524C186.566 61.7486 186.589 61.7394 186.609 61.7255C186.63 61.7116 186.647 61.6934 186.659 61.6721L187.788 59.8423L187.563 59.7139L188.558 60.281L188.259 60.7626Z" fill="white"/>
<path opacity="0.4" d="M203.32 33.4013C203.089 32.9412 202.765 32.5347 202.367 32.2082C202.231 32.0986 202.086 32.0002 201.934 31.9139L169.902 13.386C169.721 13.2829 169.517 13.2291 169.309 13.2299C169.101 13.2308 168.896 13.2863 168.717 13.3908C168.537 13.4954 168.387 13.6454 168.284 13.8257C168.18 14.0061 168.126 14.2105 168.126 14.4186C168.126 11.8505 171.903 10.6038 173.503 11.5241L205.535 30.0467C206.089 30.3679 206.547 30.8316 206.862 31.3896L203.32 33.4013Z" fill="white"/>
<path opacity="0.2" d="M203.731 67.2096V35.0064C203.732 34.4465 203.594 33.8952 203.33 33.4013L206.872 31.3896C207.172 31.922 207.331 32.5226 207.332 33.1338V65.3423C207.314 65.9582 207.135 66.5585 206.811 67.0831C206.488 67.6077 206.033 68.0382 205.491 68.3314C204.949 68.6245 204.34 68.7701 203.724 68.7535C203.108 68.7369 202.507 68.5587 201.982 68.2368C202.161 68.3332 202.363 68.3818 202.566 68.3779C202.77 68.374 202.969 68.3178 203.145 68.2146C203.321 68.1115 203.467 67.9648 203.57 67.7888C203.672 67.6128 203.728 67.4133 203.731 67.2096Z" fill="white"/>
<path d="M175.969 26.6172L194.561 37.3498L193.443 50.0941C193.379 50.8699 192.779 51.1641 192.068 50.7361L177.825 42.4967C177.54 42.3228 177.292 42.0958 177.092 41.8279L177.119 42.1918C177.205 43.0017 177.47 43.7823 177.896 44.4765C178.322 45.1707 178.897 45.7611 179.58 46.2044L180.206 46.5629C180.441 46.6183 180.667 46.7084 180.875 46.8304C181.12 46.979 181.345 47.1588 181.544 47.3655L188.216 51.2176C188.452 51.2697 188.677 51.3601 188.884 51.4852C189.127 51.6253 189.351 51.7941 189.553 51.9881L190.971 52.8067C191.129 52.9123 191.259 53.0535 191.352 53.219C191.445 53.3844 191.498 53.5694 191.506 53.759C191.506 54.1068 191.254 54.2459 190.971 54.0747L190.859 54.0105C191.019 54.4328 191.102 54.8803 191.105 55.332C191.105 56.7445 190.104 57.3169 188.868 56.6053C188.222 56.1837 187.684 55.6156 187.298 54.9473C186.913 54.2789 186.69 53.5291 186.648 52.7585C186.637 52.3972 186.726 52.0399 186.905 51.7259L182.828 49.3718C182.984 49.7951 183.068 50.242 183.074 50.6933C183.074 52.1111 182.068 52.6783 180.838 51.9667C180.189 51.5469 179.65 50.9793 179.264 50.3105C178.878 49.6418 178.656 48.891 178.617 48.1198C178.605 47.7431 178.704 47.3712 178.901 47.0498C177.273 45.7133 176.232 43.7931 176.001 41.6995L174.738 24.5787C174.7 24.2188 174.581 23.872 174.391 23.5638C174.202 23.2555 173.945 22.9936 173.641 22.7971L171.341 21.4649C171.184 21.3598 171.054 21.2194 170.961 21.0549C170.868 20.8905 170.815 20.7065 170.806 20.5179C170.806 20.1647 171.057 20.0256 171.341 20.2022L173.641 21.5291C174.248 21.924 174.76 22.4492 175.138 23.0665C175.517 23.6838 175.753 24.3777 175.83 25.0977L175.969 26.6172ZM185.701 44.7599L185.728 34.5516C185.714 34.2934 185.639 34.0421 185.51 33.8181C185.381 33.5941 185.2 33.4037 184.984 33.2622C184.572 33.0268 184.24 33.214 184.235 33.6902L184.208 43.8985C184.225 44.1538 184.301 44.4017 184.43 44.6227C184.559 44.8436 184.738 45.0316 184.952 45.1718C185.364 45.4073 185.701 45.2146 185.701 44.7438V44.7599ZM188.911 46.6057L188.938 36.3974C188.924 36.1392 188.849 35.888 188.72 35.664C188.591 35.44 188.411 35.2495 188.194 35.108C187.782 34.8726 187.445 35.0599 187.445 35.536V45.7443C187.458 46.0027 187.533 46.2543 187.662 46.4784C187.791 46.7026 187.972 46.8929 188.189 47.0337C188.601 47.2691 188.932 47.0765 188.938 46.6057H188.911ZM192.148 48.4676L192.18 38.2593C192.162 38.0029 192.085 37.7543 191.954 37.5332C191.823 37.3121 191.642 37.1247 191.426 36.986C191.014 36.7505 190.677 36.9378 190.677 37.414L190.65 47.6223C190.666 47.8845 190.745 48.139 190.88 48.3644C191.015 48.5897 191.202 48.7793 191.426 48.917C191.832 49.1524 192.169 48.9598 192.169 48.489L192.148 48.4676ZM182.496 42.9033L182.523 32.6951C182.512 32.436 182.439 32.1835 182.31 31.9589C182.18 31.7344 181.998 31.5445 181.779 31.4056C181.367 31.1702 181.035 31.3575 181.03 31.8337V42.0419C181.045 42.3001 181.119 42.5512 181.249 42.7751C181.378 42.999 181.558 43.1895 181.774 43.3314C182.186 43.5668 182.523 43.3742 182.523 42.9033H182.496ZM179.313 41.0415L179.345 30.8332C179.33 30.5752 179.255 30.3242 179.126 30.1003C178.997 29.8765 178.817 29.6859 178.601 29.5437C178.189 29.3083 177.852 29.4956 177.852 29.9718L177.82 40.1801C177.834 40.4375 177.909 40.688 178.038 40.9112C178.167 41.1343 178.347 41.3238 178.564 41.4641C178.976 41.7049 179.313 41.5123 179.313 41.0415ZM180.918 48.4516C180.458 48.184 180.083 48.3981 180.078 48.9277C180.094 49.217 180.178 49.4985 180.323 49.7494C180.468 50.0003 180.67 50.2136 180.912 50.3723C181.378 50.6398 181.747 50.4258 181.752 49.8961C181.737 49.6065 181.654 49.3246 181.509 49.0735C181.364 48.8224 181.161 48.6093 180.918 48.4516ZM188.943 53.0902C188.483 52.8227 188.109 53.0367 188.109 53.5664C188.123 53.8556 188.205 54.1374 188.349 54.3885C188.493 54.6396 188.695 54.853 188.938 55.011C189.398 55.2785 189.778 55.0645 189.778 54.5294C189.761 54.2409 189.677 53.9602 189.532 53.7101C189.387 53.4601 189.186 53.2477 188.943 53.0902Z" fill="white"/>
<path d="M199.885 37.6226C200.125 37.7688 200.322 37.9755 200.457 38.2219C200.773 38.7569 200.773 39.3561 200.457 39.5327L195.733 42.2078C195.641 42.25 195.539 42.2667 195.439 42.2564C195.338 42.246 195.242 42.2089 195.16 42.149C194.922 42.0003 194.726 41.7943 194.588 41.5497L192.277 37.537C191.956 37.002 191.961 36.4028 192.277 36.2209C192.369 36.1798 192.47 36.1636 192.571 36.174C192.671 36.1843 192.767 36.2208 192.849 36.2797C193.087 36.4284 193.284 36.6344 193.422 36.879L195.171 39.9286L199.323 37.5638C199.414 37.5237 199.513 37.508 199.612 37.5183C199.71 37.5286 199.804 37.5646 199.885 37.6226Z" fill="white"/>
<path d="M196.375 32.6736C199.526 34.4927 202.067 38.9013 202.057 42.5181C202.046 46.1349 199.489 47.5902 196.337 45.7711C193.186 43.952 190.65 39.5541 190.661 35.932C190.671 32.3098 193.229 30.8599 196.375 32.6736ZM195.706 42.2292L200.43 39.5541C200.751 39.3775 200.751 38.789 200.43 38.2433C200.295 37.9969 200.098 37.7902 199.858 37.644C199.776 37.584 199.68 37.5469 199.58 37.5366C199.479 37.5262 199.377 37.543 199.285 37.5852L195.171 39.9286L193.427 36.9003C193.289 36.6558 193.092 36.4497 192.854 36.3011C192.772 36.2421 192.676 36.2057 192.576 36.1954C192.476 36.185 192.374 36.2012 192.282 36.2423C191.966 36.4242 191.961 37.0074 192.282 37.5584L194.593 41.5711C194.731 41.8157 194.928 42.0217 195.166 42.1704C195.247 42.2303 195.343 42.2674 195.444 42.2778C195.545 42.2881 195.646 42.2714 195.738 42.2292" fill="#F7B22C"/>
<path opacity="0.3" d="M196.375 32.6736C199.526 34.4927 202.067 38.9013 202.057 42.5181C202.046 46.1349 199.489 47.5902 196.337 45.7711C193.186 43.952 190.65 39.5541 190.661 35.932C190.671 32.3098 193.229 30.8599 196.375 32.6736ZM195.706 42.2292L200.43 39.5541C200.751 39.3775 200.751 38.789 200.43 38.2433C200.295 37.9969 200.098 37.7902 199.858 37.644C199.776 37.584 199.68 37.5469 199.58 37.5366C199.479 37.5262 199.377 37.543 199.285 37.5852L195.171 39.9286L193.427 36.9003C193.289 36.6558 193.092 36.4497 192.854 36.3011C192.772 36.2421 192.676 36.2057 192.576 36.1954C192.476 36.185 192.374 36.2012 192.282 36.2423C191.966 36.4242 191.961 37.0074 192.282 37.5584L194.593 41.5711C194.731 41.8157 194.928 42.0217 195.166 42.1704C195.247 42.2303 195.343 42.2674 195.444 42.2778C195.545 42.2881 195.646 42.2714 195.738 42.2292" fill="white"/>
<path d="M93.6821 17.1579C93.3076 15.8363 90.6217 13.3217 87.9466 13.3752C87.6904 13.3833 87.4372 13.4339 87.1976 13.525L35.3054 43.0317C34.4376 43.5249 33.7413 44.2717 33.3098 45.1718C32.9674 45.8472 32.7844 46.5922 32.7748 47.3494V159.625C32.7748 162.482 36.0705 165.21 39.1683 163.905C39.2387 163.885 39.3068 163.858 39.3716 163.824L91.2691 134.248C92.0294 133.814 92.6613 133.186 93.101 132.429C93.5407 131.672 93.7725 130.812 93.7731 129.936V17.6982C93.7847 17.5135 93.7536 17.3286 93.6821 17.1579Z" fill="#455A64"/>
<path d="M40.0133 59.2271C40.015 58.7917 40.1317 58.3645 40.3516 57.9887C40.5714 57.6129 40.8866 57.3018 41.2653 57.087L89.4764 29.6562C89.6646 29.5488 89.8777 29.4925 90.0943 29.493C90.311 29.4934 90.5238 29.5506 90.7116 29.6588C90.8993 29.767 91.0554 29.9225 91.1645 30.1097C91.2735 30.297 91.3316 30.5096 91.333 30.7262V121.253C91.3286 121.687 91.2107 122.114 90.9912 122.489C90.7716 122.864 90.4579 123.176 90.081 123.393L41.8912 150.872C41.7031 150.979 41.49 151.035 41.2733 151.035C41.0566 151.034 40.8438 150.977 40.6561 150.869C40.4684 150.761 40.3122 150.605 40.2032 150.418C40.0942 150.231 40.0361 150.018 40.0347 149.802L40.0133 59.2271Z" fill="#F7B22C"/>
<path opacity="0.2" d="M40.0133 59.2271C40.015 58.7917 40.1317 58.3645 40.3516 57.9887C40.5714 57.6129 40.8866 57.3018 41.2653 57.087L89.4764 29.6562C89.6646 29.5488 89.8777 29.4925 90.0943 29.493C90.311 29.4934 90.5238 29.5506 90.7116 29.6588C90.8993 29.767 91.0554 29.9225 91.1645 30.1097C91.2735 30.297 91.3316 30.5096 91.333 30.7262V121.253C91.3286 121.687 91.2107 122.114 90.9912 122.489C90.7716 122.864 90.4579 123.176 90.081 123.393L41.8912 150.872C41.7031 150.979 41.49 151.035 41.2733 151.035C41.0566 151.034 40.8438 150.977 40.6561 150.869C40.4684 150.761 40.3122 150.605 40.2032 150.418C40.0942 150.231 40.0361 150.018 40.0347 149.802L40.0133 59.2271Z" fill="black"/>
<path opacity="0.1" d="M40.0133 59.2271C40.015 58.7917 40.1317 58.3645 40.3516 57.9887C40.5714 57.6129 40.8866 57.3018 41.2653 57.087L89.4764 29.6562C89.6646 29.5488 89.8777 29.4925 90.0943 29.493C90.311 29.4934 90.5238 29.5506 90.7116 29.6588C90.8993 29.767 91.0554 29.9225 91.1645 30.1097C91.2735 30.297 91.3316 30.5096 91.333 30.7262V121.253C91.3286 121.687 91.2107 122.114 90.9912 122.489C90.7716 122.864 90.4579 123.176 90.081 123.393L41.8912 150.872C41.7031 150.979 41.49 151.035 41.2733 151.035C41.0566 151.034 40.8438 150.977 40.6561 150.869C40.4684 150.761 40.3122 150.605 40.2032 150.418C40.0942 150.231 40.0361 150.018 40.0347 149.802L40.0133 59.2271Z" fill="white"/>
<path opacity="0.3" d="M32.7959 47.3601V159.625C32.7959 162.482 36.0917 165.21 39.1895 163.905C39.0035 163.973 38.8039 163.995 38.6076 163.969C38.4113 163.944 38.224 163.871 38.0618 163.758C37.8995 163.644 37.767 163.493 37.6755 163.318C37.584 163.142 37.5362 162.947 37.5362 162.749V50.4633C37.5495 49.484 37.853 48.5306 38.4083 47.7239L33.3095 45.1719C32.9729 45.8523 32.7972 46.601 32.7959 47.3601Z" fill="black"/>
<path opacity="0.1" d="M87.952 13.37C87.6957 13.3781 87.4426 13.4287 87.2029 13.5198L35.3055 43.0318C34.4376 43.5251 33.7413 44.2718 33.3098 45.1719L38.4086 47.724C38.8315 47.0636 39.4055 46.5134 40.0832 46.1189L91.9807 16.5962C92.1275 16.5118 92.2902 16.4587 92.4585 16.4401C92.6268 16.4214 92.7971 16.4377 92.9588 16.488C93.1205 16.5382 93.2701 16.6212 93.3983 16.7319C93.5264 16.8426 93.6303 16.9786 93.7035 17.1312C93.3129 15.8311 90.6271 13.3165 87.952 13.37Z" fill="white"/>
<path d="M72.0779 35.1562C72.447 34.9475 72.7466 35.1134 72.7466 35.5307C72.7327 35.7607 72.6656 35.9844 72.5504 36.184C72.4353 36.3836 72.2753 36.5538 72.0832 36.681L61.9177 42.5663C61.5539 42.7803 61.2596 42.6038 61.2596 42.1811C61.2719 41.9541 61.3374 41.7332 61.4508 41.5361C61.5641 41.3391 61.7223 41.1715 61.9124 41.0468L72.0779 35.1562Z" fill="#263238"/>
<path d="M59.2744 42.545C59.6382 42.3363 59.9325 42.5022 59.9325 42.9249C59.9196 43.1538 59.8534 43.3765 59.7391 43.5753C59.6248 43.7741 59.4657 43.9434 59.2744 44.0698C58.9106 44.2785 58.611 44.1073 58.611 43.6899C58.6223 43.46 58.6885 43.2362 58.8039 43.037C58.9193 42.8379 59.0806 42.6692 59.2744 42.545Z" fill="#263238"/>
<path d="M65.8018 34.3056C66.5295 33.8829 67.118 34.22 67.118 35.0546C67.0954 35.5118 66.9648 35.9572 66.7369 36.3543C66.5091 36.7514 66.1905 37.0889 65.8072 37.3392C65.0796 37.7618 64.475 37.4194 64.475 36.5794C64.5019 36.1228 64.6361 35.679 64.8666 35.2839C65.0972 34.8888 65.4176 34.5537 65.8018 34.3056Z" fill="#263238"/>
<path d="M65.8015 139.989C67.2889 139.133 68.4767 139.818 68.4767 141.519C68.4293 142.452 68.1623 143.36 67.6974 144.17C67.2326 144.98 66.583 145.668 65.8015 146.179C64.3195 147.036 63.089 146.335 63.0836 144.628C63.1391 143.695 63.4142 142.789 63.8865 141.983C64.3588 141.177 65.015 140.494 65.8015 139.989Z" fill="#263238"/>
<path d="M91.1725 28.233L108.7 42.7803L102.312 46.472L84.7843 31.9247L91.1725 28.233Z" fill="#F7B22C"/>
<path d="M78.4017 35.6164L95.9238 50.1584L89.5356 53.85L72.0135 39.3081L78.4017 35.6164Z" fill="#F7B22C"/>
<path d="M72.0135 39.3081L89.5356 53.8501L83.1474 57.5417L65.6306 42.9944L72.0135 39.3081Z" fill="white"/>
<path d="M84.7842 31.9247L102.312 46.472L95.9235 50.1584L78.4014 35.6164L84.7842 31.9247Z" fill="white"/>
<path d="M52.8594 50.3777L70.3708 64.9197L63.9826 68.6114L46.4712 54.0694L52.8594 50.3777Z" fill="#F7B22C"/>
<path d="M65.6305 42.9944L83.1473 57.5417L76.759 61.228L59.2423 46.686L65.6305 42.9944Z" fill="#F7B22C"/>
<path d="M39.9601 57.8306L46.4713 54.0693L63.9827 68.6113L57.4554 72.3779L39.9601 57.8306Z" fill="white"/>
<path d="M59.2424 46.6861L76.7591 61.2281L70.3709 64.9197L52.8595 50.3777L59.2424 46.6861Z" fill="white"/>
<path d="M108.7 42.7803L102.312 46.472C102.312 46.9049 102.425 47.3303 102.641 47.7054C102.857 48.0806 103.168 48.3923 103.543 48.6091C103.918 48.826 104.343 48.9405 104.776 48.941C105.209 48.9415 105.634 48.8281 106.009 48.6121C106.824 48.1361 107.5 47.4548 107.969 46.6362C108.438 45.8176 108.685 44.8903 108.684 43.9467L108.7 42.7803Z" fill="#F7B22C"/>
<path d="M102.312 46.472L95.9238 50.1637C95.9234 50.5966 96.0369 51.022 96.2529 51.3971C96.469 51.7723 96.78 52.084 97.1546 52.3008C97.5293 52.5177 97.9544 52.6322 98.3874 52.6327C98.8203 52.6332 99.2457 52.5198 99.6209 52.3038C100.436 51.8286 101.113 51.1475 101.582 50.3287C102.052 49.5099 102.298 48.5822 102.296 47.6384L102.312 46.472Z" fill="#E0E0E0"/>
<path d="M95.9237 50.1637L89.5355 53.85C89.5351 54.2829 89.6486 54.7083 89.8646 55.0835C90.0807 55.4586 90.3917 55.7703 90.7663 55.9872C91.141 56.2041 91.5661 56.3185 91.999 56.319C92.432 56.3195 92.8574 56.2061 93.2326 55.9901C94.048 55.5149 94.7244 54.8338 95.1939 54.0151C95.6633 53.1963 95.9095 52.2685 95.9077 51.3247L95.9237 50.1637Z" fill="#F7B22C"/>
<path d="M89.5355 53.8501L83.1472 57.5418C83.1452 57.9753 83.2576 58.4017 83.4733 58.7778C83.689 59.1539 84.0001 59.4664 84.3753 59.6836C84.7506 59.9008 85.1765 60.015 85.61 60.0147C86.0436 60.0144 86.4694 59.8996 86.8443 59.6819C87.6593 59.2075 88.3355 58.5274 88.805 57.7095C89.2745 56.8917 89.5208 55.9648 89.5194 55.0218L89.5355 53.8501Z" fill="#E0E0E0"/>
<path d="M83.1471 57.5417L76.7589 61.2227C76.7585 61.6556 76.872 62.081 77.088 62.4561C77.3041 62.8313 77.6151 63.1429 77.9897 63.3598C78.3644 63.5767 78.7895 63.6911 79.2224 63.6917C79.6553 63.6922 80.0808 63.5787 80.4559 63.3628C81.2714 62.8876 81.9478 62.2065 82.4172 61.3877C82.8867 60.5689 83.1329 59.6412 83.1311 58.6973L83.1471 57.5417Z" fill="#F7B22C"/>
<path d="M76.7593 61.2226L70.3711 64.909C70.3706 65.3419 70.4841 65.7673 70.7002 66.1424C70.9162 66.5176 71.2272 66.8292 71.6019 67.0461C71.9766 67.263 72.4017 67.3775 72.8346 67.378C73.2675 67.3785 73.6929 67.2651 74.0681 67.0491C74.8829 66.5731 75.5586 65.8918 76.028 65.0732C76.4974 64.2546 76.744 63.3273 76.7432 62.3837L76.7593 61.2226Z" fill="#E0E0E0"/>
<path d="M70.371 64.9198L63.9828 68.6114C63.9807 69.045 64.0932 69.4714 64.3089 69.8475C64.5245 70.2236 64.8357 70.5361 65.2109 70.7533C65.5861 70.9705 66.0121 71.0847 66.4456 71.0844C66.8792 71.0841 67.3049 70.9693 67.6798 70.7515C68.4979 70.2793 69.1763 69.5988 69.6462 68.7794C70.1161 67.9599 70.3606 67.0307 70.355 66.0861L70.371 64.9198Z" fill="#F7B22C"/>
<path opacity="0.2" d="M108.7 42.7803L102.312 46.472C102.312 46.9049 102.425 47.3303 102.641 47.7054C102.857 48.0806 103.168 48.3923 103.543 48.6091C103.918 48.826 104.343 48.9405 104.776 48.941C105.209 48.9415 105.634 48.8281 106.009 48.6121C106.824 48.1361 107.5 47.4548 107.969 46.6362C108.438 45.8176 108.685 44.8903 108.684 43.9467L108.7 42.7803Z" fill="black"/>
<path opacity="0.2" d="M95.9237 50.1637L89.5355 53.85C89.5351 54.2829 89.6486 54.7083 89.8646 55.0835C90.0807 55.4586 90.3917 55.7703 90.7663 55.9872C91.141 56.2041 91.5661 56.3185 91.999 56.319C92.432 56.3195 92.8574 56.2061 93.2326 55.9901C94.048 55.5149 94.7244 54.8338 95.1939 54.0151C95.6633 53.1963 95.9095 52.2685 95.9077 51.3247L95.9237 50.1637Z" fill="black"/>
<path opacity="0.2" d="M83.1471 57.5417L76.7589 61.2227C76.7585 61.6556 76.872 62.081 77.088 62.4561C77.3041 62.8313 77.6151 63.1429 77.9897 63.3598C78.3644 63.5767 78.7895 63.6911 79.2224 63.6917C79.6553 63.6922 80.0808 63.5787 80.4559 63.3628C81.2714 62.8876 81.9478 62.2065 82.4172 61.3877C82.8867 60.5689 83.1329 59.6412 83.1311 58.6973L83.1471 57.5417Z" fill="black"/>
<path opacity="0.2" d="M70.371 64.9198L63.9828 68.6114C63.9807 69.045 64.0932 69.4714 64.3089 69.8475C64.5245 70.2236 64.8357 70.5361 65.2109 70.7533C65.5861 70.9705 66.0121 71.0847 66.4456 71.0844C66.8792 71.0841 67.3049 70.9693 67.6798 70.7515C68.4979 70.2793 69.1763 69.5988 69.6462 68.7794C70.1161 67.9599 70.3606 67.0307 70.355 66.0861L70.371 64.9198Z" fill="black"/>
<path d="M63.9828 68.6115L57.4608 72.3566C57.4593 72.7894 57.5719 73.2149 57.7873 73.5903C58.0027 73.9656 58.3132 74.2775 58.6876 74.4946C59.062 74.7116 59.487 74.8261 59.9198 74.8265C60.3525 74.8269 60.7777 74.7131 61.1525 74.4967C62.0136 73.9996 62.7286 73.2844 63.2254 72.4231C63.7223 71.5618 63.9835 70.5849 63.9828 69.5906V68.6115Z" fill="#E0E0E0"/>
<path d="M71.4303 87.4389C69.5353 87.6635 67.697 88.231 66.0051 89.1135C62.0608 91.1483 59.0468 94.618 57.5838 98.8082C56.9492 100.608 56.6465 102.508 56.6903 104.415C57.1109 102.613 57.7187 100.859 58.504 99.1827C60.2608 95.4271 63.0309 92.2363 66.5027 89.9696C68.0534 88.9582 69.7048 88.1101 71.4303 87.4389Z" fill="#F7B22C"/>
<path d="M66.4332 115.453C65.3931 115.435 64.3623 115.255 63.3782 114.918C62.2846 114.555 61.275 113.977 60.4093 113.217C59.5435 112.457 58.8392 111.531 58.3382 110.493C57.8749 109.562 57.5624 108.564 57.4126 107.535C57.3007 108.612 57.4418 109.7 57.8246 110.713C58.2556 111.892 58.9764 112.945 59.9207 113.773C60.865 114.602 62.0024 115.179 63.2284 115.453C64.2821 115.702 65.3795 115.702 66.4332 115.453Z" fill="#F7B22C"/>
<path d="M74.7263 98.2464C74.8307 99.6723 74.8092 101.105 74.6621 102.527C74.3234 105.74 73.2704 108.836 71.5803 111.59C70.8297 112.814 69.9721 113.969 69.0176 115.041C70.2466 114.219 71.3313 113.199 72.2277 112.023C74.3032 109.314 75.4311 105.998 75.4379 102.585C75.4408 101.11 75.2004 99.6438 74.7263 98.2464Z" fill="#F7B22C"/>
<path d="M57.9531 92.3398C56.6597 93.5837 55.6029 95.0521 54.8339 96.6735C53.0221 100.436 52.7197 104.749 53.9886 108.728C54.5292 110.44 55.3717 112.042 56.4764 113.457C55.7742 111.861 55.2364 110.197 54.8713 108.492C54.0709 104.673 54.3487 100.707 55.6739 97.0373C56.267 95.3959 57.0309 93.8214 57.9531 92.3398Z" fill="#F7B22C"/>
<path d="M78.3912 92.9711C78.2545 91.5098 77.7299 90.1116 76.8718 88.921C75.8976 87.5148 74.5345 86.4232 72.9495 85.7799C71.3644 85.1366 69.6262 84.9694 67.9475 85.2989C66.5034 85.5602 65.1541 86.1988 64.0365 87.15C65.293 86.534 66.6543 86.1601 68.0492 86.0479C69.5885 85.9068 71.1392 86.1363 72.5717 86.7171C74.0042 87.2979 75.2768 88.2132 76.2832 89.3865C77.2051 90.4381 77.9203 91.6543 78.3912 92.9711Z" fill="#F7B22C"/>
<path d="M101.338 76.2034C103.033 76.0311 104.731 76.5053 106.091 77.5311C107.451 78.5569 108.373 80.0586 108.673 81.7356L111.156 95.6462L126.725 106.534L123.248 110.766L108.438 102.987C107.566 102.529 106.794 101.901 106.168 101.14C105.542 100.379 105.075 99.501 104.795 98.5568L100.022 82.4578L101.338 76.2034Z" fill="#FFA8A7"/>
<path d="M107.117 91.152C108.492 90.4196 109.594 89.2615 110.257 87.8509L108.861 81.4734C108.504 79.8539 107.565 78.4219 106.221 77.4502C104.877 76.4784 103.223 76.0346 101.574 76.2034L101.338 76.2301L100.022 82.4953L102.077 91.7191C103.77 92.1421 105.559 91.9408 107.117 91.152Z" fill="#455A64"/>
<path d="M107.116 91.152C105.559 91.9407 103.77 92.1421 102.076 91.7191L102.611 93.993C104.543 94.4263 109.492 94.2819 110.781 90.1943L110.246 87.8402C109.588 89.2531 108.49 90.415 107.116 91.152Z" fill="#455A64"/>
<path opacity="0.2" d="M107.117 91.152C108.492 90.4196 109.594 89.2615 110.257 87.8509L108.861 81.4734C108.504 79.8539 107.565 78.4219 106.221 77.4502C104.877 76.4784 103.223 76.0346 101.574 76.2034L101.338 76.2301L100.022 82.4953L102.077 91.7191C103.77 92.1421 105.559 91.9408 107.117 91.152Z" fill="white"/>
<path opacity="0.5" d="M107.116 91.152C105.559 91.9407 103.77 92.1421 102.076 91.7191L102.611 93.993C104.543 94.4263 109.492 94.2819 110.781 90.1943L110.246 87.8402C109.588 89.2531 108.49 90.415 107.116 91.152Z" fill="white"/>
<path d="M104.784 82.1903C104.784 82.1903 104.163 77.4553 101.338 76.2194C101.338 76.2194 94.5757 78.2472 88.9686 80.3766C86.7511 81.1852 84.5792 82.1139 82.4627 83.1587C81.1893 84.2609 77.5351 87.5406 75.8177 88.4234C74.9787 88.8426 74.0738 89.1141 73.1426 89.2259C71.966 89.4148 70.8364 89.827 69.8147 90.4404C64.6678 93.4151 60.5106 100.606 60.5267 106.529C60.5267 110.408 62.3457 112.756 65.0369 113.083H65.16C65.585 113.128 66.0137 113.128 66.4387 113.083C71.1202 113.04 78.6266 113.002 81.5746 112.157C95.3461 108.112 106.175 98.1394 104.784 82.1903Z" fill="#455A64"/>
<path d="M91.6598 80.2483L93.6768 76.5887L101.793 82.0567L98.583 86.369C97.9091 86.6992 97.1739 86.8854 96.424 86.9158C95.6742 86.9462 94.9263 86.8201 94.2279 86.5455C93.5376 86.2273 92.9202 85.7705 92.414 85.2035C91.9078 84.6366 91.5236 83.9715 91.2853 83.2498C91.1429 82.75 91.1026 82.2266 91.167 81.7109C91.2313 81.1952 91.3989 80.6978 91.6598 80.2483Z" fill="#FFA8A7"/>
<path opacity="0.2" d="M94.4363 77.0969C94.4363 81.5055 97.9407 83.5707 100.081 84.3518L101.793 82.0566L94.4363 77.0969Z" fill="black"/>
<path d="M90.7715 72.699C90.4719 70.9387 90.1669 69.1303 90.5093 67.3755C90.8517 65.6206 91.986 63.9085 93.7195 63.3949C94.0715 62.6447 94.5751 61.9755 95.1985 61.4294C95.8219 60.8834 96.5515 60.4723 97.3416 60.2222C98.8905 59.7994 100.493 59.6047 102.098 59.6443C103.869 59.5382 105.646 59.637 107.395 59.9386C109.157 60.2533 110.758 61.1614 111.932 62.5121C112.534 63.3408 112.961 64.2832 113.187 65.282C113.413 66.2809 113.434 67.3153 113.248 68.3225C112.864 70.3353 112.119 72.2621 111.049 74.0098C107.646 74.2505 104.179 74.6411 100.776 74.8819C99.0431 75.0637 97.2964 75.0798 95.56 74.93C93.7881 74.6437 92.1305 73.8713 90.7715 72.699Z" fill="#263238"/>
<path d="M111.605 64.5398C112.478 69.7759 111.9 75.1508 109.936 80.0823C109.481 81.2219 108.866 82.4043 107.823 83.0089C106.78 83.6135 105.324 83.5172 104.078 83.3246C102.016 83.0897 100.005 82.5243 98.1228 81.6499C96.2283 80.7563 94.7523 79.1653 94.0031 77.2092C93.3285 77.345 92.6291 77.2835 91.9886 77.0321C91.3481 76.7806 90.7937 76.3499 90.3917 75.7914C89.6016 74.6324 89.192 73.256 89.22 71.8536C89.22 70.9601 89.3858 69.9061 90.1884 69.5155C90.9909 69.125 91.8255 69.5583 92.4729 70.0827C93.5342 70.9459 94.31 72.1096 94.6986 73.4212C95.2872 71.2437 96.2021 69.141 96.7906 67.0009C97.026 66.1449 97.3256 65.2139 98.0586 64.7378C98.9681 64.1546 100.156 64.4863 101.21 64.7378C104.635 65.5575 108.214 65.4894 111.605 64.5398Z" fill="#FFA8A7"/>
<path d="M105.271 71.1367L107.812 75.4115L104.778 75.9787L105.271 71.1367Z" fill="#F28F8F"/>
<path d="M101.863 77.4554L104.163 78.5736C103.967 78.8359 103.69 79.0265 103.375 79.1164C103.06 79.2062 102.724 79.1904 102.419 79.0712C102.156 78.9062 101.956 78.6558 101.855 78.3617C101.754 78.0677 101.757 77.7478 101.863 77.4554Z" fill="#F28F8F"/>
<path opacity="0.3" d="M101.863 77.4554L104.163 78.5736C103.967 78.8359 103.69 79.0265 103.375 79.1164C103.06 79.2062 102.724 79.1904 102.419 79.0712C102.156 78.9062 101.956 78.6558 101.855 78.3617C101.754 78.0677 101.757 77.7478 101.863 77.4554Z" fill="black"/>
<path d="M103.216 79.1461C102.949 79.2004 102.671 79.1744 102.419 79.0712C102.207 78.9528 102.036 78.7741 101.926 78.5578C101.817 78.3414 101.774 78.0973 101.804 77.8567C102.134 77.8573 102.454 77.9685 102.713 78.1723C103.001 78.4193 103.181 78.7685 103.216 79.1461Z" fill="#F28F8F"/>
<path d="M100.883 71.3079C100.866 71.4796 100.9 71.6526 100.982 71.8049C101.063 71.9572 101.187 72.082 101.339 72.1635C101.492 72.245 101.664 72.2795 101.836 72.2627C102.008 72.2459 102.171 72.1785 102.304 72.069C102.438 71.9596 102.536 71.813 102.586 71.6478C102.636 71.4827 102.636 71.3064 102.586 71.1413C102.536 70.9761 102.438 70.8296 102.304 70.7202C102.171 70.6108 102.008 70.5435 101.836 70.5267C101.606 70.5043 101.377 70.574 101.198 70.7204C101.02 70.8669 100.906 71.0781 100.883 71.3079Z" fill="#263238"/>
<path d="M108.181 71.7573C108.164 71.9278 108.198 72.0994 108.278 72.2506C108.359 72.4018 108.482 72.5258 108.633 72.607C108.784 72.6881 108.955 72.7227 109.126 72.7064C109.296 72.6902 109.458 72.6238 109.591 72.5156C109.724 72.4074 109.822 72.2624 109.872 72.0987C109.922 71.935 109.923 71.76 109.874 71.5959C109.825 71.4318 109.729 71.2858 109.597 71.1765C109.465 71.0672 109.304 70.9993 109.134 70.9816C109.02 70.9697 108.905 70.9804 108.796 71.013C108.687 71.0456 108.585 71.0995 108.496 71.1716C108.408 71.2437 108.334 71.3325 108.28 71.4331C108.226 71.5336 108.193 71.6438 108.181 71.7573Z" fill="#263238"/>
<path d="M109.369 68.3974L111.156 69.9168C111.263 69.6873 111.298 69.4305 111.255 69.1809C111.212 68.9313 111.093 68.7008 110.915 68.5204C110.695 68.3579 110.433 68.2603 110.16 68.2386C109.887 68.2168 109.613 68.2718 109.369 68.3974Z" fill="#263238"/>
<path d="M102.253 68.2797L100.204 69.4139C100.144 69.1681 100.161 68.9098 100.251 68.6736C100.342 68.4374 100.503 68.2346 100.712 68.0924C100.961 67.9775 101.237 67.9342 101.51 67.9673C101.782 68.0003 102.039 68.1085 102.253 68.2797Z" fill="#263238"/>
<path d="M113.232 66.3001C105.789 67.4915 98.2037 67.4915 90.7607 66.3001C91.1085 57.2047 95.2015 54.2246 102.264 54.2246C109.326 54.2246 113.312 58.0126 113.232 66.3001Z" fill="#455A64"/>
<path d="M113.232 66.3001C113.232 62.8171 112.558 60.1419 111.236 58.1998L108.277 57.3705C106.885 56.9794 105.423 56.9026 103.997 57.1458L101.178 57.6166C100.213 57.7719 99.3248 58.2379 98.6489 58.9438C97.9729 59.6497 97.5458 60.5569 97.4324 61.5277L96.785 67.017C102.277 67.4124 107.795 67.1719 113.232 66.3001Z" fill="#455A64"/>
<path opacity="0.29" d="M113.232 66.3001C113.232 62.8171 112.558 60.1419 111.236 58.1998L108.277 57.3705C106.885 56.9794 105.423 56.9026 103.997 57.1458L101.178 57.6166C100.213 57.7719 99.3248 58.2379 98.6489 58.9438C97.9729 59.6497 97.5458 60.5569 97.4324 61.5277L96.785 67.017C102.277 67.4124 107.795 67.1719 113.232 66.3001Z" fill="white"/>
<path d="M114.115 58.6439H112.809C112.387 58.6439 111.969 58.6439 111.552 58.6921C107.724 58.9703 104.097 60.5094 101.237 63.0686L96.8387 67.0171C102.313 67.4084 107.813 67.1678 113.232 66.3001L116.094 62.8278C116.399 62.4519 116.591 61.9978 116.648 61.5176C116.706 61.0374 116.626 60.5508 116.42 60.1136C116.213 59.6765 115.887 59.3066 115.479 59.0466C115.071 58.7866 114.598 58.647 114.115 58.6439Z" fill="#455A64"/>
<path opacity="0.2" d="M114.115 58.6439H112.809C112.387 58.6439 111.969 58.6439 111.552 58.6921C107.724 58.9703 104.097 60.5094 101.237 63.0686L96.8387 67.0171C102.313 67.4084 107.813 67.1678 113.232 66.3001L116.094 62.8278C116.399 62.4519 116.591 61.9978 116.648 61.5176C116.706 61.0374 116.626 60.5508 116.42 60.1136C116.213 59.6765 115.887 59.3066 115.479 59.0466C115.071 58.7866 114.598 58.647 114.115 58.6439Z" fill="black"/>
<path d="M136.725 107.267L116.785 118.856L96.7051 107.267L116.651 95.673L136.725 107.267Z" fill="#F7B22C"/>
<g opacity="0.3">
<path opacity="0.3" d="M136.725 107.267L116.785 118.856L96.7051 107.267L116.651 95.673L136.725 107.267Z" fill="white"/>
</g>
<path d="M136.725 107.267L136.671 127.555L116.726 139.144L116.785 118.856L136.725 107.267Z" fill="#F7B22C"/>
<g opacity="0.1">
<path opacity="0.1" d="M136.725 107.267L136.671 127.555L116.726 139.144L116.785 118.856L136.725 107.267Z" fill="white"/>
</g>
<path d="M116.784 118.856L116.726 139.144L96.6514 127.555L96.7049 107.267L116.784 118.856Z" fill="#F7B22C"/>
<path d="M120.257 105.78L127.009 101.655L123.563 99.6643L116.784 103.709L120.257 105.78Z" fill="#E0E0E0"/>
<path d="M120.257 105.78L116.784 103.709L109.898 99.6001L106.464 101.596L113.307 105.78L116.784 107.904L125.965 113.516L129.646 111.381L120.257 105.78Z" fill="white"/>
<path d="M113.307 105.78L103.874 111.403L107.571 113.538L116.784 107.904L113.307 105.78Z" fill="#E0E0E0"/>
<path d="M129.646 111.381L125.965 113.516L125.998 113.538L126.051 133.724L129.775 131.563L129.716 111.419L129.646 111.381Z" fill="#E0E0E0"/>
<path d="M107.571 113.537L103.874 111.403L103.847 111.419L103.788 131.675L107.512 133.826L107.571 113.537Z" fill="white"/>
<path opacity="0.2" d="M107.571 113.537L103.874 111.403L103.847 111.419L103.788 131.675L107.512 133.826L107.571 113.537Z" fill="black"/>
<path d="M116.774 111.911L112.6 114.463L116.774 116.876L120.936 114.458L116.774 111.911Z" fill="white"/>
<path d="M77.2886 111.21C77.2886 111.21 78.8455 88.5518 79.1719 87.134C80.4185 81.7463 88.2298 82.1315 88.9735 87.6102C89.2785 89.8466 85.7099 111.563 85.7099 111.563L98.6361 125.239L101.252 127.641L103.585 127.17L108.903 127.673C109.045 127.687 109.178 127.747 109.282 127.843C109.386 127.94 109.456 128.068 109.481 128.208C109.515 128.374 109.484 128.546 109.395 128.69C109.305 128.833 109.163 128.936 109 128.978L105.484 129.834L108.02 131.568C108.376 131.811 108.779 131.977 109.203 132.055L113.178 132.809C113.354 132.842 113.511 132.937 113.621 133.079C113.73 133.22 113.784 133.396 113.772 133.574C113.764 133.715 113.715 133.851 113.631 133.965C113.548 134.079 113.433 134.166 113.301 134.216L111.161 135.013C109.774 135.534 108.292 135.749 106.814 135.644C105.337 135.538 103.9 135.115 102.601 134.403L97.9994 131.846C97.3247 131.483 96.6883 131.053 96.1001 130.562L79.6052 116.919C78.7741 116.236 78.1268 115.356 77.7222 114.359C77.3177 113.362 77.1686 112.279 77.2886 111.21Z" fill="#FFA8A7"/>
<path d="M88.7653 102.527L90.4185 90.221C90.5211 89.3825 90.4575 88.5319 90.2314 87.7179C90.0052 86.904 89.621 86.1425 89.1006 85.477C88.5802 84.8115 87.9338 84.255 87.1983 83.8394C86.4628 83.4237 85.6527 83.1569 84.8141 83.0544C83.9756 82.9518 83.125 83.0154 82.311 83.2415C81.497 83.4676 80.7356 83.8519 80.0701 84.3723C79.4046 84.8927 78.8481 85.5391 78.4325 86.2746C78.0168 87.0101 77.75 87.8202 77.6475 88.6588L76.2671 101.216C78.142 102.299 80.2243 102.974 82.378 103.197C84.5317 103.42 86.7082 103.186 88.7653 102.511V102.527Z" fill="#455A64"/>
<path opacity="0.2" d="M88.7653 102.527L90.4185 90.221C90.5211 89.3825 90.4575 88.5319 90.2314 87.7179C90.0052 86.904 89.621 86.1425 89.1006 85.477C88.5802 84.8115 87.9338 84.255 87.1983 83.8394C86.4628 83.4237 85.6527 83.1569 84.8141 83.0544C83.9756 82.9518 83.125 83.0154 82.311 83.2415C81.497 83.4676 80.7356 83.8519 80.0701 84.3723C79.4046 84.8927 78.8481 85.5391 78.4325 86.2746C78.0168 87.0101 77.75 87.8202 77.6475 88.6588L76.2671 101.216C78.142 102.299 80.2243 102.974 82.378 103.197C84.5317 103.42 86.7082 103.186 88.7653 102.511V102.527Z" fill="white"/>
<path d="M82.1253 103.185C80.0534 102.93 78.0529 102.267 76.24 101.232L75.9243 104.126C81.4832 108.407 88.2995 105.764 88.2995 105.764L88.7382 102.527C86.6061 103.216 84.3513 103.44 82.1253 103.185Z" fill="#455A64"/>
<path opacity="0.5" d="M82.1253 103.185C80.0534 102.93 78.0529 102.267 76.24 101.232L75.9243 104.126C81.4832 108.407 88.2995 105.764 88.2995 105.764L88.7382 102.527C86.6061 103.216 84.3513 103.44 82.1253 103.185Z" fill="white"/>
<path d="M226.705 144.564L235.383 144.82L244.061 144.564C244.431 150.449 243.291 156.398 241.713 159.314C241.339 160.063 240.738 160.673 239.995 161.058C237.432 162.54 233.297 162.54 230.75 161.058C229.998 160.666 229.396 160.036 229.038 159.266C227.465 156.334 226.336 150.395 226.705 144.564Z" fill="white"/>
<path d="M229.268 141.011C225.871 142.975 225.849 146.158 229.225 148.122C232.601 150.085 238.096 150.08 241.499 148.122C244.901 146.163 244.917 142.975 241.536 141.011C238.155 139.048 232.665 139.048 229.268 141.011Z" fill="#EBEBEB"/>
<path d="M230.611 141.792C227.936 143.322 227.936 145.805 230.579 147.34C233.222 148.876 237.502 148.871 240.156 147.34C242.809 145.81 242.831 143.322 240.182 141.792C237.534 140.262 233.265 140.262 230.611 141.792Z" fill="#E0E0E0"/>
<g opacity="0.15">
<path opacity="0.15" d="M230.611 141.792C227.936 143.322 227.936 145.805 230.579 147.34C233.222 148.876 237.502 148.871 240.156 147.34C242.809 145.81 242.831 143.322 240.182 141.792C237.534 140.262 233.265 140.262 230.611 141.792Z" fill="black"/>
</g>
<path d="M239.808 126.811C241.221 125.057 242.858 123.484 244.152 121.643C245.035 120.386 245.758 118.845 245.399 117.363C245.194 116.678 244.801 116.064 244.265 115.592C243.729 115.119 243.071 114.806 242.365 114.688C240.941 114.476 239.488 114.8 238.289 115.597C237.101 116.39 236.058 117.382 235.207 118.529C230.319 124.719 228.007 132.555 228.754 140.406C228.772 141.306 229.053 142.18 229.562 142.921C229.874 143.287 230.284 143.556 230.744 143.696C231.204 143.836 231.694 143.842 232.157 143.713C234.522 143.012 234.206 139.818 234.592 137.94C235.123 135.362 236.039 132.878 237.309 130.573C238.029 129.247 238.865 127.989 239.808 126.811Z" fill="#F7B22C"/>
<path opacity="0.2" d="M239.808 126.811C241.221 125.057 242.858 123.484 244.152 121.643C245.035 120.386 245.758 118.845 245.399 117.363C245.194 116.678 244.801 116.064 244.265 115.592C243.729 115.119 243.071 114.806 242.365 114.688C240.941 114.476 239.488 114.8 238.289 115.597C237.101 116.39 236.058 117.382 235.207 118.529C230.319 124.719 228.007 132.555 228.754 140.406C228.772 141.306 229.053 142.18 229.562 142.921C229.874 143.287 230.284 143.556 230.744 143.696C231.204 143.836 231.694 143.842 232.157 143.713C234.522 143.012 234.206 139.818 234.592 137.94C235.123 135.362 236.039 132.878 237.309 130.573C238.029 129.247 238.865 127.989 239.808 126.811Z" fill="white"/>
<path d="M232.007 141.316C232.053 141.306 232.095 141.282 232.125 141.246C232.155 141.21 232.172 141.165 232.173 141.118C232.339 137.325 233.575 124.377 242.499 117.042C242.521 117.025 242.539 117.004 242.552 116.981C242.565 116.957 242.573 116.93 242.576 116.903C242.578 116.876 242.575 116.849 242.567 116.823C242.558 116.797 242.544 116.773 242.526 116.753C242.509 116.732 242.489 116.714 242.465 116.701C242.441 116.687 242.415 116.679 242.388 116.676C242.361 116.673 242.334 116.676 242.308 116.683C242.282 116.691 242.258 116.704 242.237 116.721C233.179 124.179 231.927 137.282 231.761 141.118C231.76 141.172 231.78 141.225 231.817 141.265C231.854 141.305 231.905 141.329 231.959 141.332L232.007 141.316Z" fill="#F0F0F0"/>
<path d="M230.707 141.723C230.894 142.553 231.247 143.337 231.744 144.027C232.242 144.718 232.873 145.301 233.602 145.741C234.967 146.391 236.486 146.646 237.989 146.479C239.51 146.299 241.004 145.94 242.44 145.409C243.157 145.168 243.949 144.847 244.046 143.959C244.056 143.727 244.016 143.495 243.928 143.28C243.841 143.065 243.707 142.871 243.537 142.712C243.392 142.569 243.239 142.435 243.077 142.311C243.003 142.256 242.947 142.179 242.917 142.09C242.888 142.002 242.886 141.907 242.912 141.818C242.939 141.729 242.992 141.65 243.064 141.592C243.137 141.533 243.225 141.499 243.318 141.493C243.743 141.463 244.167 141.41 244.586 141.332C245.57 141.179 246.494 140.763 247.261 140.128C247.818 139.635 248.241 139.009 248.492 138.309C248.706 137.71 248.77 136.961 248.315 136.517C248.035 136.283 247.693 136.134 247.331 136.089C247.015 136.019 246.694 135.96 246.378 135.912C246.287 135.899 246.203 135.856 246.138 135.79C246.073 135.724 246.032 135.638 246.021 135.547C246.009 135.455 246.028 135.362 246.074 135.283C246.12 135.203 246.191 135.14 246.277 135.104L247.625 134.543C248.012 134.417 248.363 134.198 248.647 133.906C248.821 133.634 248.935 133.328 248.979 133.009C249.023 132.689 248.998 132.363 248.904 132.055C248.738 131.209 248.449 130.396 248.251 129.561C248.011 128.739 247.973 127.871 248.139 127.031C245.616 126.75 243.063 126.92 240.6 127.534C239.859 127.688 239.157 127.994 238.54 128.433C237.7 129.107 237.47 130.113 237.572 131.209C237.575 131.254 237.563 131.298 237.537 131.334C237.512 131.371 237.474 131.397 237.432 131.409C237.389 131.421 237.343 131.418 237.302 131.4C237.261 131.382 237.228 131.351 237.208 131.311L236.368 129.706C236.242 129.477 236.033 129.305 235.784 129.226C235.536 129.146 235.266 129.165 235.03 129.278C234.276 129.656 233.606 130.184 233.061 130.829C232.761 131.171 232.531 131.57 232.387 132.002C232.243 132.434 232.186 132.89 232.221 133.344C232.325 134.592 232.535 135.829 232.847 137.041C232.868 137.11 232.866 137.184 232.842 137.252C232.817 137.319 232.772 137.378 232.712 137.418C232.652 137.458 232.581 137.478 232.509 137.474C232.437 137.471 232.368 137.445 232.312 137.4H232.275C232.044 137.221 231.753 137.136 231.462 137.164C230.702 137.255 230.509 138.026 230.456 138.684C230.418 139.703 230.502 140.723 230.707 141.723Z" fill="#F7B22C"/>
<path opacity="0.2" d="M230.707 141.723C230.894 142.553 231.247 143.337 231.744 144.027C232.242 144.718 232.873 145.301 233.602 145.741C234.967 146.391 236.486 146.646 237.989 146.479C239.51 146.299 241.004 145.94 242.44 145.409C243.157 145.168 243.949 144.847 244.046 143.959C244.056 143.727 244.016 143.495 243.928 143.28C243.841 143.065 243.707 142.871 243.537 142.712C243.392 142.569 243.239 142.435 243.077 142.311C243.003 142.256 242.947 142.179 242.917 142.09C242.888 142.002 242.886 141.907 242.912 141.818C242.939 141.729 242.992 141.65 243.064 141.592C243.137 141.533 243.225 141.499 243.318 141.493C243.743 141.463 244.167 141.41 244.586 141.332C245.57 141.179 246.494 140.763 247.261 140.128C247.818 139.635 248.241 139.009 248.492 138.309C248.706 137.71 248.77 136.961 248.315 136.517C248.035 136.283 247.693 136.134 247.331 136.089C247.015 136.019 246.694 135.96 246.378 135.912C246.287 135.899 246.203 135.856 246.138 135.79C246.073 135.724 246.032 135.638 246.021 135.547C246.009 135.455 246.028 135.362 246.074 135.283C246.12 135.203 246.191 135.14 246.277 135.104L247.625 134.543C248.012 134.417 248.363 134.198 248.647 133.906C248.821 133.634 248.935 133.328 248.979 133.009C249.023 132.689 248.998 132.363 248.904 132.055C248.738 131.209 248.449 130.396 248.251 129.561C248.011 128.739 247.973 127.871 248.139 127.031C245.616 126.75 243.063 126.92 240.6 127.534C239.859 127.688 239.157 127.994 238.54 128.433C237.7 129.107 237.47 130.113 237.572 131.209C237.575 131.254 237.563 131.298 237.537 131.334C237.512 131.371 237.474 131.397 237.432 131.409C237.389 131.421 237.343 131.418 237.302 131.4C237.261 131.382 237.228 131.351 237.208 131.311L236.368 129.706C236.242 129.477 236.033 129.305 235.784 129.226C235.536 129.146 235.266 129.165 235.03 129.278C234.276 129.656 233.606 130.184 233.061 130.829C232.761 131.171 232.531 131.57 232.387 132.002C232.243 132.434 232.186 132.89 232.221 133.344C232.325 134.592 232.535 135.829 232.847 137.041C232.868 137.11 232.866 137.184 232.842 137.252C232.817 137.319 232.772 137.378 232.712 137.418C232.652 137.458 232.581 137.478 232.509 137.474C232.437 137.471 232.368 137.445 232.312 137.4H232.275C232.044 137.221 231.753 137.136 231.462 137.164C230.702 137.255 230.509 138.026 230.456 138.684C230.418 139.703 230.502 140.723 230.707 141.723Z" fill="black"/>
<path opacity="0.2" d="M230.707 141.723C230.894 142.553 231.247 143.337 231.744 144.027C232.242 144.718 232.873 145.301 233.602 145.741C234.967 146.391 236.486 146.646 237.989 146.479C239.51 146.299 241.004 145.94 242.44 145.409C243.157 145.168 243.949 144.847 244.046 143.959C244.056 143.727 244.016 143.495 243.928 143.28C243.841 143.065 243.707 142.871 243.537 142.712C243.392 142.569 243.239 142.435 243.077 142.311C243.003 142.256 242.947 142.179 242.917 142.09C242.888 142.002 242.886 141.907 242.912 141.818C242.939 141.729 242.992 141.65 243.064 141.592C243.137 141.533 243.225 141.499 243.318 141.493C243.743 141.463 244.167 141.41 244.586 141.332C245.57 141.179 246.494 140.763 247.261 140.128C247.818 139.635 248.241 139.009 248.492 138.309C248.706 137.71 248.77 136.961 248.315 136.517C248.035 136.283 247.693 136.134 247.331 136.089C247.015 136.019 246.694 135.96 246.378 135.912C246.287 135.899 246.203 135.856 246.138 135.79C246.073 135.724 246.032 135.638 246.021 135.547C246.009 135.455 246.028 135.362 246.074 135.283C246.12 135.203 246.191 135.14 246.277 135.104L247.625 134.543C248.012 134.417 248.363 134.198 248.647 133.906C248.821 133.634 248.935 133.328 248.979 133.009C249.023 132.689 248.998 132.363 248.904 132.055C248.738 131.209 248.449 130.396 248.251 129.561C248.011 128.739 247.973 127.871 248.139 127.031C245.616 126.75 243.063 126.92 240.6 127.534C239.859 127.688 239.157 127.994 238.54 128.433C237.7 129.107 237.47 130.113 237.572 131.209C237.575 131.254 237.563 131.298 237.537 131.334C237.512 131.371 237.474 131.397 237.432 131.409C237.389 131.421 237.343 131.418 237.302 131.4C237.261 131.382 237.228 131.351 237.208 131.311L236.368 129.706C236.242 129.477 236.033 129.305 235.784 129.226C235.536 129.146 235.266 129.165 235.03 129.278C234.276 129.656 233.606 130.184 233.061 130.829C232.761 131.171 232.531 131.57 232.387 132.002C232.243 132.434 232.186 132.89 232.221 133.344C232.325 134.592 232.535 135.829 232.847 137.041C232.868 137.11 232.866 137.184 232.842 137.252C232.817 137.319 232.772 137.378 232.712 137.418C232.652 137.458 232.581 137.478 232.509 137.474C232.437 137.471 232.368 137.445 232.312 137.4H232.275C232.044 137.221 231.753 137.136 231.462 137.164C230.702 137.255 230.509 138.026 230.456 138.684C230.418 139.703 230.502 140.723 230.707 141.723Z" fill="white"/>
<path d="M234.704 145.537C235.177 143.511 235.856 141.539 236.732 139.652C236.732 139.623 236.739 139.594 236.751 139.567C236.763 139.541 236.78 139.517 236.801 139.497L236.946 139.192C236.698 136.843 236.016 134.561 234.934 132.461C234.908 132.413 234.901 132.357 234.915 132.305C234.929 132.252 234.962 132.207 235.009 132.178C235.057 132.151 235.114 132.144 235.167 132.159C235.22 132.174 235.265 132.21 235.292 132.258C236.306 134.214 236.976 136.329 237.272 138.512C238.989 135.067 241.729 131.022 245.955 128.101C246.001 128.07 246.057 128.058 246.111 128.068C246.165 128.078 246.213 128.109 246.244 128.154C246.259 128.176 246.27 128.201 246.276 128.228C246.281 128.254 246.282 128.281 246.277 128.307C246.272 128.334 246.261 128.359 246.247 128.381C246.232 128.404 246.213 128.423 246.191 128.438C241.83 131.477 239.08 135.682 237.411 139.17C239.661 138.154 242.158 137.816 244.596 138.197C244.65 138.208 244.698 138.24 244.729 138.286C244.76 138.332 244.772 138.388 244.762 138.443C244.754 138.483 244.734 138.52 244.704 138.549C244.675 138.578 244.637 138.597 244.596 138.603H244.516C244.479 138.603 240.536 137.881 237.122 139.786C236.253 141.654 235.579 143.606 235.11 145.612C235.101 145.652 235.08 145.688 235.051 145.717C235.022 145.745 234.985 145.765 234.945 145.773H234.864C234.812 145.762 234.766 145.732 234.736 145.688C234.706 145.644 234.694 145.59 234.704 145.537Z" fill="#F0F0F0"/>
<path d="M36.9801 162.294L27.1035 162.583L17.2323 162.294C16.8043 168.961 18.1097 175.756 19.9074 179.078C20.3317 179.933 21.0177 180.63 21.8656 181.068C24.7761 182.754 29.4844 182.754 32.3789 181.068C33.2381 180.625 33.9251 179.907 34.3317 179.03C36.1133 175.686 37.4028 168.929 36.9801 162.294Z" fill="white"/>
<path d="M34.0638 158.25C37.9321 160.486 37.9535 164.103 34.112 166.339C30.2705 168.576 24.0161 168.57 20.1478 166.339C16.2796 164.108 16.2582 160.486 20.0997 158.25C23.9412 156.013 30.1956 156.018 34.0638 158.25Z" fill="#EBEBEB"/>
<path d="M32.523 159.132C35.5406 160.877 35.5566 163.701 32.5605 165.446C29.5643 167.19 24.6849 167.185 21.6673 165.446C18.6498 163.707 18.6337 160.877 21.6299 159.132C24.626 157.388 29.5162 157.399 32.523 159.132Z" fill="#E0E0E0"/>
<g opacity="0.15">
<path opacity="0.15" d="M32.523 159.132C35.5406 160.877 35.5566 163.701 32.5605 165.446C29.5643 167.19 24.6849 167.185 21.6673 165.446C18.6498 163.707 18.6337 160.877 21.6299 159.132C24.626 157.388 29.5162 157.399 32.523 159.132Z" fill="black"/>
</g>
<path d="M43.3413 120.161C21.0895 127.448 20.8702 142.333 25.9048 152.931C27.1674 155.071 30.9982 156.232 34.3261 143.049L28.4836 143.798L35.2945 140.342L37.0654 135.056L31.3834 135.479L38.5956 132.445C39.922 128.256 41.5069 124.154 43.3413 120.161Z" fill="#F7B22C"/>
<path opacity="0.2" d="M43.3413 120.161C21.0895 127.448 20.8702 142.333 25.9048 152.931C27.1674 155.071 30.9982 156.232 34.3261 143.049L28.4836 143.798L35.2945 140.342L37.0654 135.056L31.3834 135.479L38.5956 132.445C39.922 128.256 41.5069 124.154 43.3413 120.161Z" fill="black"/>
<path opacity="0.2" d="M43.3413 120.161C21.0895 127.448 20.8702 142.333 25.9048 152.931C27.1674 155.071 30.9982 156.232 34.3261 143.049L28.4836 143.798L35.2945 140.342L37.0654 135.056L31.3834 135.479L38.5956 132.445C39.922 128.256 41.5069 124.154 43.3413 120.161Z" fill="white"/>
<path d="M37.0439 123.885C25.3108 132.788 24.2514 143.001 27.5686 153.659C26.3969 144.275 25.1289 134.783 37.0439 123.885Z" fill="white"/>
<path d="M5.65405 135.281C27.5901 138.368 30.2652 152.198 27.3333 162.904C26.5147 165.114 23.1387 166.826 17.8473 155.098L23.4276 154.852L16.4723 152.744L13.9469 148.111L19.2972 147.576L12.0797 145.971C10.1577 142.28 8.01176 138.71 5.65405 135.281Z" fill="#F7B22C"/>
<path opacity="0.2" d="M5.65405 135.281C27.5901 138.368 30.2652 152.198 27.3333 162.904C26.5147 165.114 23.1387 166.826 17.8473 155.098L23.4276 154.852L16.4723 152.744L13.9469 148.111L19.2972 147.576L12.0797 145.971C10.1577 142.28 8.01176 138.71 5.65405 135.281Z" fill="white"/>
<path opacity="0.1" d="M5.65405 135.281C27.5901 138.368 30.2652 152.198 27.3333 162.904C26.5147 165.114 23.1387 166.826 17.8473 155.098L23.4276 154.852L16.4723 152.744L13.9469 148.111L19.2972 147.576L12.0797 145.971C10.1577 142.28 8.01176 138.71 5.65405 135.281Z" fill="black"/>
<path d="M12.1332 137.731C24.5404 144.077 27.2209 153.408 25.9047 163.883C25.4393 154.922 25.0326 145.874 12.1332 137.731Z" fill="white"/>
<path d="M49.756 140.465C29.6444 140.792 25.6798 152.958 27.1244 162.936C27.6166 165.018 30.4683 166.938 36.5515 156.96L31.5598 156.093L38.0282 154.986L40.8264 151.107L36.054 150.01L42.7418 149.352C44.8951 146.249 47.2376 143.281 49.756 140.465Z" fill="#F7B22C"/>
<path d="M43.6464 141.92C31.7527 146.249 28.2911 154.365 28.3072 163.953C29.725 155.954 31.0947 147.843 43.6464 141.92Z" fill="white"/>
<path opacity="0.2" d="M49.756 140.465C29.6444 140.792 25.6798 152.958 27.1244 162.936C27.6166 165.018 30.4683 166.938 36.5515 156.96L31.5598 156.093L38.0282 154.986L40.8264 151.107L36.054 150.01L42.7418 149.352C44.8951 146.249 47.2376 143.281 49.756 140.465Z" fill="white"/>
<path d="M165.745 120.364C160.464 124.035 154.51 126.571 150.106 131.488C141.872 140.669 141.68 155.446 148.148 165.949C154.617 176.451 166.649 182.759 178.901 184.204C191.742 185.723 205.241 182.171 215.326 174.038C225.411 165.906 231.826 153.252 231.821 140.332C231.815 127.411 225.186 114.5 214.347 107.427C204.454 101.007 190.244 99.1399 180.319 106.518C175.306 110.263 171.957 115.758 166.944 119.503C166.58 119.792 166.173 120.075 165.745 120.364Z" fill="#F7B22C"/>
<path opacity="0.2" d="M165.745 120.364C160.464 124.035 154.51 126.571 150.106 131.488C141.872 140.669 141.68 155.446 148.148 165.949C154.617 176.451 166.649 182.759 178.901 184.204C191.742 185.723 205.241 182.171 215.326 174.038C225.411 165.906 231.826 153.252 231.821 140.332C231.815 127.411 225.186 114.5 214.347 107.427C204.454 101.007 190.244 99.1399 180.319 106.518C175.306 110.263 171.957 115.758 166.944 119.503C166.58 119.792 166.173 120.075 165.745 120.364Z" fill="black"/>
<path opacity="0.1" d="M165.745 120.364C160.464 124.035 154.51 126.571 150.106 131.488C141.872 140.669 141.68 155.446 148.148 165.949C154.617 176.451 166.649 182.759 178.901 184.204C191.742 185.723 205.241 182.171 215.326 174.038C225.411 165.906 231.826 153.252 231.821 140.332C231.815 127.411 225.186 114.5 214.347 107.427C204.454 101.007 190.244 99.1399 180.319 106.518C175.306 110.263 171.957 115.758 166.944 119.503C166.58 119.792 166.173 120.075 165.745 120.364Z" fill="white"/>
<path opacity="0.1" d="M167.917 174.172C167.917 174.081 167.944 173.995 167.954 173.91C168.395 171.05 169.717 168.398 171.736 166.325C173.754 164.252 176.369 162.86 179.217 162.342C184.321 161.37 189.212 159.499 193.662 156.816C196.814 154.911 199.794 152.573 203.33 151.54C206.772 150.552 210.448 150.766 213.753 152.145C210.778 149.026 205.684 147.651 201.613 149.063C204.427 144.745 206.91 140.101 207.883 135.04C208.857 129.979 208.162 124.42 205.112 120.268C203.813 118.493 202.137 117.028 200.203 115.979C198.27 114.93 196.128 114.323 193.932 114.202C191.736 114.081 189.54 114.45 187.503 115.28C185.466 116.111 183.639 117.383 182.154 119.005C179.131 122.312 177.43 126.967 175.445 130.979C174.016 133.863 172.545 136.816 170.191 139.005C166.649 142.322 161.545 143.515 157.885 146.688C153.717 150.288 151.92 156.04 151.904 161.545C151.968 165.26 152.507 168.951 153.509 172.529C157.818 176.644 162.959 179.788 168.586 181.748C167.77 179.31 167.541 176.715 167.917 174.172Z" fill="black"/>
<path d="M224.945 138.55C224.778 129.614 221.449 121.028 215.549 114.315C209.649 107.602 201.561 103.198 192.721 101.885C191.494 102.007 190.277 102.21 189.077 102.494C198.375 102.988 207.14 106.985 213.609 113.68C220.078 120.376 223.771 129.273 223.945 138.582C224.186 150.625 218.29 162.904 208.183 171.422C200.265 178.099 189.746 182.529 178.179 184.118C178.425 184.155 178.676 184.188 178.923 184.214C179.96 184.337 181.004 184.423 182.052 184.482C192.325 182.486 201.629 178.254 208.804 172.176C219.162 163.461 225.186 150.893 224.945 138.55Z" fill="white"/>
<path d="M163.252 183.027L164.579 185.654C166.446 183.92 166.788 182.524 166.788 182.524C166.184 180.384 165.477 178.206 165.124 177.147C164.948 178.623 163.942 179.891 163.519 181.331C163.364 181.883 163.274 182.453 163.252 183.027Z" fill="#37474F"/>
<path d="M163.316 185.718L164.578 185.654L163.252 183.027C163.214 183.915 163.289 184.814 163.316 185.718Z" fill="#263238"/>
<path d="M164.279 174.049C163.821 173.386 163.296 172.773 162.711 172.219C163.031 173.366 163.022 174.581 162.684 175.723C162.294 177.243 161.582 178.671 161.224 180.202C160.79 182.063 160.892 184.064 160.1 185.809C159.709 186.655 159.125 187.398 158.396 187.98C157.667 188.561 156.813 188.965 155.9 189.158C155.228 189.345 154.508 189.259 153.899 188.917C153.644 188.735 153.455 188.474 153.364 188.173C152.968 189.003 152.485 189.788 151.925 190.517C151.304 191.319 150.529 192.208 150.7 193.192C150.801 193.603 151.021 193.975 151.334 194.261C151.646 194.546 152.036 194.733 152.455 194.797C153.293 194.915 154.146 194.843 154.953 194.588C156.727 194.205 158.42 193.516 159.956 192.55C161.504 191.561 162.635 190.038 163.134 188.27C163.316 187.418 163.381 186.545 163.326 185.675C163.326 184.776 163.225 183.872 163.262 183C163.283 182.426 163.371 181.857 163.524 181.304C163.952 179.864 164.958 178.596 165.13 177.12C165.13 177.04 165.156 176.965 165.162 176.884C165.173 175.87 164.865 174.877 164.279 174.049Z" fill="#455A64"/>
<path opacity="0.1" d="M164.279 174.049C163.821 173.386 163.296 172.773 162.711 172.219C163.031 173.366 163.022 174.581 162.684 175.723C162.294 177.243 161.582 178.671 161.224 180.202C160.79 182.063 160.892 184.064 160.1 185.809C159.709 186.655 159.125 187.398 158.396 187.98C157.667 188.561 156.813 188.965 155.9 189.158C155.228 189.345 154.508 189.259 153.899 188.917C153.644 188.735 153.455 188.474 153.364 188.173C152.968 189.003 152.485 189.788 151.925 190.517C151.304 191.319 150.529 192.208 150.7 193.192C150.801 193.603 151.021 193.975 151.334 194.261C151.646 194.546 152.036 194.733 152.455 194.797C153.293 194.915 154.146 194.843 154.953 194.588C156.727 194.205 158.42 193.516 159.956 192.55C161.504 191.561 162.635 190.038 163.134 188.27C163.316 187.418 163.381 186.545 163.326 185.675C163.326 184.776 163.225 183.872 163.262 183C163.283 182.426 163.371 181.857 163.524 181.304C163.952 179.864 164.958 178.596 165.13 177.12C165.13 177.04 165.156 176.965 165.162 176.884C165.173 175.87 164.865 174.877 164.279 174.049Z" fill="black"/>
<path d="M155.901 189.158C156.813 188.965 157.668 188.561 158.397 187.98C159.126 187.398 159.709 186.655 160.101 185.809C160.893 184.064 160.791 182.063 161.224 180.202C161.583 178.671 162.294 177.243 162.685 175.723C163.023 174.581 163.032 173.366 162.712 172.219C162.562 172.069 162.412 171.919 162.257 171.775C159.999 172.941 157.442 173.915 155.382 175.402C155.426 178.037 155.258 180.671 154.879 183.278C154.599 184.972 154.086 186.62 153.354 188.173C153.445 188.474 153.633 188.735 153.889 188.917C154.192 189.088 154.526 189.197 154.871 189.238C155.216 189.279 155.566 189.252 155.901 189.158Z" fill="#AB6160"/>
<path d="M148.233 182.213C147.864 184.391 146.195 188.826 146.195 188.826C146.195 188.826 154.012 189.142 154.188 188.783L156.483 185.231L148.233 182.213Z" fill="#C48281"/>
<path d="M171.63 130.38L151.701 141.476C149.893 142.484 148.447 144.033 147.567 145.906C146.686 147.778 146.416 149.88 146.794 151.915L150.663 172.781L147.49 182.866C150.229 186.536 156.516 186.724 156.516 186.724C160.026 179.688 162.599 176.703 164.589 170.807C166.58 164.911 167.912 160.844 167.912 160.844L184.498 156.318C188.286 155.288 191.679 153.146 194.237 150.168C196.796 147.191 198.404 143.515 198.852 139.615C199.136 137.111 199.147 135.404 199.147 135.404L171.63 130.38Z" fill="#455A64"/>
<path opacity="0.2" d="M170.293 136.945C170.295 139.171 171.086 141.324 172.524 143.023L159.956 150.872C157.889 152.164 156.358 154.159 155.644 156.489L150.662 172.781L155.157 154.638C155.674 152.551 156.987 150.75 158.816 149.62L170.309 142.547C168.982 139.229 170.293 136.945 170.293 136.945Z" fill="black"/>
<path d="M150.438 198.938L150.62 201.87C153.022 201.014 153.883 199.864 153.883 199.864C154.167 197.654 154.375 195.375 154.472 194.262C153.723 195.552 152.299 196.322 151.342 197.472C150.98 197.921 150.676 198.414 150.438 198.938Z" fill="#37474F"/>
<path d="M149.437 201.431L150.62 201.87L150.438 198.938C150.053 199.735 149.764 200.597 149.437 201.431Z" fill="#263238"/>
<path d="M154.905 191.079C154.745 190.291 154.505 189.522 154.188 188.783C154.03 189.964 153.545 191.076 152.786 191.994C151.829 193.235 150.609 194.267 149.683 195.53C148.549 197.076 147.854 198.954 146.446 200.244C145.753 200.869 144.923 201.324 144.023 201.573C143.124 201.821 142.178 201.857 141.262 201.678C140.572 201.583 139.947 201.219 139.523 200.666C139.354 200.399 139.279 200.083 139.309 199.768C138.619 200.378 137.868 200.916 137.067 201.373C136.179 201.87 135.115 202.378 134.879 203.368C134.816 203.782 134.875 204.206 135.05 204.586C135.225 204.966 135.508 205.287 135.864 205.508C136.586 205.946 137.398 206.217 138.239 206.3C140.021 206.646 141.85 206.677 143.643 206.391C145.45 206.095 147.085 205.142 148.233 203.716C148.738 203.004 149.143 202.226 149.437 201.405C149.764 200.57 150.053 199.709 150.438 198.911C150.677 198.389 150.98 197.898 151.342 197.451C152.3 196.295 153.723 195.525 154.472 194.241C154.509 194.177 154.557 194.112 154.595 194.037C155.008 193.109 155.117 192.073 154.905 191.079Z" fill="#455A64"/>
<path d="M141.262 201.683C142.178 201.863 143.124 201.827 144.024 201.578C144.923 201.329 145.753 200.874 146.446 200.249C147.854 198.96 148.549 197.082 149.683 195.535C150.609 194.273 151.824 193.24 152.787 191.999C153.545 191.081 154.03 189.969 154.188 188.789L153.948 188.2C151.412 188.387 148.672 188.264 146.195 188.832C145.202 191.271 144.012 193.626 142.637 195.873C141.716 197.324 140.596 198.639 139.309 199.778C139.279 200.093 139.354 200.409 139.523 200.677C139.948 201.228 140.573 201.59 141.262 201.683Z" fill="#C48281"/>
<path d="M192.09 100.916C195.338 93.3659 195.53 84.8498 192.625 77.161C191.694 74.732 190.378 72.3458 188.221 70.8638C185.461 69.0019 181.892 69.0286 178.564 69.1249C176.799 69.1784 174.996 69.2319 173.337 69.8419C172.511 70.1226 171.765 70.5999 171.164 71.2327C170.562 71.8655 170.124 72.6349 169.886 73.4747C167.709 73.0734 165.515 74.7908 164.926 76.9256C164.338 79.0603 165.108 81.3824 166.462 83.1372C167.816 84.8921 169.672 86.1494 171.577 87.2997C170.432 87.899 169.587 89.2793 169.191 90.5099C168.795 91.7457 168.888 93.0865 169.453 94.2551C168.427 94.2655 167.43 94.5901 166.594 95.1851C165.759 95.7802 165.127 96.6171 164.782 97.5829C164.504 98.5497 164.461 99.569 164.658 100.556C164.854 101.542 165.284 102.468 165.911 103.254C167.189 104.823 168.949 105.925 170.919 106.389C172.878 106.847 174.903 106.956 176.9 106.71C178.966 108.711 182.748 108.669 185.343 107.427C187.938 106.186 190.939 103.548 192.09 100.916Z" fill="#263238"/>
<path d="M173.605 95.8922H173.096C169.699 95.9297 165.397 98.2463 163.295 104.174L155.13 119.99L164.45 124.12L169.549 109.193L173.605 95.8922Z" fill="#C48281"/>
<path d="M167.056 106.39C166.408 108.257 166.366 110.268 166.264 112.275C166.162 114.281 165.932 116.63 165.028 118.39C164.032 117.7 162.838 117.351 161.627 117.395C160.416 117.44 159.251 117.875 158.308 118.636C157.63 119.209 157.111 119.946 156.799 120.776L164.45 124.168L169.549 109.241L172.058 101.013C170.911 101.534 169.878 102.278 169.019 103.201C168.161 104.124 167.493 105.207 167.056 106.39Z" fill="#AB6160"/>
<path d="M164.536 121.274C164.183 120.393 163.61 119.617 162.872 119.02C162.134 118.424 161.255 118.026 160.32 117.866C158.453 117.561 156.339 118.54 155.13 120.006C154.114 121.231 154.274 122.895 154.916 124.356C155.453 125.489 156.365 126.402 157.499 126.938C158.632 127.475 159.916 127.602 161.133 127.298C163.541 126.619 165.445 123.601 164.536 121.274Z" fill="#C48281"/>
<path d="M174.46 95.6033C170.865 96.1758 168.634 105.271 167.468 108.728C166.258 112.296 167.901 114.886 169.731 117.042C170.061 117.434 170.307 117.89 170.452 118.382C170.596 118.874 170.637 119.39 170.571 119.899L166.815 133.954C177.141 141.621 194.454 137.908 199.152 135.404C199.206 130.494 198.17 125.633 196.118 121.172C194.735 118.291 193.956 115.158 193.828 111.964L193.652 106.807L194.898 97.9039L185.931 95.7638L178.029 95.4107C176.837 95.4072 175.645 95.4715 174.46 95.6033Z" fill="#F7B22C"/>
<path opacity="0.4" d="M174.46 95.6033C170.865 96.1758 168.634 105.271 167.468 108.728C166.258 112.296 167.901 114.886 169.731 117.042C170.061 117.434 170.307 117.89 170.452 118.382C170.596 118.874 170.637 119.39 170.571 119.899L166.815 133.954C177.141 141.621 194.454 137.908 199.152 135.404C199.206 130.494 198.17 125.633 196.118 121.172C194.735 118.291 193.956 115.158 193.828 111.964L193.652 106.807L194.898 97.9039L185.931 95.7638L178.029 95.4107C176.837 95.4072 175.645 95.4715 174.46 95.6033Z" fill="black"/>
<path d="M174.38 136.212C174.38 136.212 174.38 136.212 174.38 136.18C174.38 136.148 174.38 136.148 174.38 136.116V136.083V136.057V136.025L168.281 124.666V124.634V124.602V124.57L168.254 124.532V124.495C168.228 124.457 168.228 124.457 168.201 124.42L168.169 124.388L168.142 124.35V124.324V124.297V124.27L168.051 124.19H168.019H167.992H167.96H167.923L167.885 124.163H167.842L159.86 119.401H159.817H159.78H159.737H159.699H159.662H159.624H159.592H159.555H159.512H159.475H159.432H159.325C159.285 119.402 159.247 119.418 159.218 119.444L158.383 120.402H158.41C158.34 120.455 158.335 120.568 158.437 120.755L164.536 132.114C164.877 132.639 165.34 133.076 165.884 133.387L172.898 137.335C173.257 137.539 173.476 137.544 173.508 137.394C173.508 137.394 173.508 137.448 173.508 137.458L174.348 136.501C174.351 136.487 174.351 136.472 174.348 136.458C174.351 136.446 174.351 136.433 174.348 136.421L174.38 136.212ZM158.565 120.204C158.565 120.204 158.565 120.204 158.613 120.204H158.64H158.565ZM166.59 124.736C166.655 124.789 166.724 124.843 166.783 124.901C166.74 124.843 166.671 124.789 166.607 124.736H166.59ZM167.029 125.164L167.115 125.255L167.029 125.164ZM173.54 137.196C173.531 137.115 173.505 137.037 173.466 136.966C173.502 137.031 173.527 137.102 173.54 137.175C173.54 137.175 173.535 137.164 173.54 137.196Z" fill="#455A64"/>
<path opacity="0.15" d="M174.38 136.212C174.38 136.212 174.38 136.212 174.38 136.18C174.38 136.148 174.38 136.148 174.38 136.116V136.083V136.057V136.025L168.281 124.666L167.35 125.586L173.455 136.945C173.491 137.01 173.516 137.08 173.53 137.153C173.536 137.175 173.537 137.199 173.532 137.221C173.528 137.243 173.517 137.264 173.503 137.282L174.343 136.324C174.346 136.31 174.346 136.296 174.343 136.281C174.345 136.269 174.345 136.256 174.343 136.244L174.38 136.212Z" fill="white"/>
<path opacity="0.2" d="M168.179 124.596V124.564V124.532L168.153 124.495V124.457C168.126 124.42 168.126 124.42 168.099 124.382L168.067 124.35L168.04 124.313V124.286V124.259V124.233L167.949 124.152H167.917H167.89H167.858H167.821L167.783 124.126H167.741L159.86 119.401H159.817H159.779H159.737H159.699H159.662H159.624H159.592H159.555H159.512H159.475H159.432H159.325C159.285 119.402 159.247 119.418 159.218 119.444L158.383 120.402C158.422 120.359 158.492 120.348 158.592 120.37C158.727 120.405 158.857 120.459 158.977 120.53L165.991 124.479C166.132 124.555 166.266 124.642 166.392 124.741C166.527 124.844 166.656 124.955 166.778 125.073C166.896 125.182 167.007 125.3 167.109 125.426C167.197 125.529 167.274 125.64 167.339 125.757L168.179 124.8V124.596Z" fill="white"/>
<path d="M198.339 100.879C197.343 99.172 196.038 97.8612 194.058 97.7113C194.058 97.7113 190.848 99.3806 190.848 106.957L191.062 125.913C190.597 126.1 190.131 126.298 189.671 126.49C185.758 128.173 181.668 129.41 177.478 130.177C175.293 128.442 172.574 127.519 169.784 127.566L170.817 129.492C168.859 130.749 164.429 128.486 164.429 128.486C164.102 131.247 165.895 134.115 168.27 135.564C170.646 137.014 193.299 134.885 198.103 131.776C201.265 129.733 200.516 110.188 200.516 110.188C200.734 106.937 199.976 103.696 198.339 100.879Z" fill="#C48281"/>
<path d="M159.64 122.751C159.489 123.496 159.403 124.253 159.383 125.014C159.559 126.825 160.326 128.529 161.566 129.861C161.823 130.154 162.146 130.381 162.508 130.524C162.685 130.594 162.878 130.614 163.066 130.584C163.254 130.554 163.431 130.474 163.578 130.353C163.844 130.035 163.98 129.628 163.958 129.214C164.018 128.6 163.984 127.981 163.856 127.378C163.731 126.769 163.386 126.226 162.888 125.854C162.503 125.626 162.091 125.446 161.663 125.319C161.251 125.138 160.885 124.868 160.592 124.527L159.64 122.751Z" fill="#C48281"/>
<path d="M178.002 91.8956V99.0543C177.301 99.7177 176.627 100.477 176.563 101.424C176.551 101.878 176.664 102.326 176.889 102.719C177.115 103.113 177.444 103.437 177.842 103.655C178.651 104.084 179.597 104.176 180.474 103.912C181.342 103.645 182.138 103.184 182.801 102.564C183.743 101.694 184.503 100.645 185.035 99.4782C185.568 98.3117 185.864 97.051 185.905 95.7692V88.5089L178.002 91.8956Z" fill="#C48281"/>
<path d="M185.6 88.5089C184.851 92.4467 183.315 95.8602 178.002 97.0693V91.8689L185.6 88.5089Z" fill="#AB6160"/>
<path d="M183.743 84.3678C183.666 84.9986 183.666 85.6364 183.743 86.2672C183.83 86.7433 184.068 87.1787 184.423 87.5084C184.595 87.665 184.803 87.7767 185.029 87.8336C185.255 87.8905 185.491 87.8909 185.717 87.8348C185.568 87.2143 185.663 86.5599 185.984 86.0081C186.305 85.4562 186.826 85.0496 187.44 84.873C188.053 84.6963 188.711 84.7633 189.277 85.0599C189.842 85.3566 190.271 85.86 190.474 86.4651C190.6 86.9014 190.628 87.36 190.557 87.8085C190.486 88.257 190.317 88.6843 190.062 89.06C189.545 89.8089 188.862 90.428 188.066 90.8684C187.608 91.0427 187.102 91.0503 186.639 90.8899C186.175 90.7295 185.783 90.4113 185.53 89.991C183.246 93.1423 179.142 95.6034 175.199 95.4322C174.119 95.4192 173.066 95.0961 172.165 94.5012C170.635 93.4312 170.453 91.6816 170.196 89.9696C169.827 87.8103 169.753 85.6107 169.977 83.4315C170.335 80.4247 171.545 77.4285 173.786 75.4062C175.375 81.8372 181.443 83.9826 183.743 84.3678Z" fill="#C48281"/>
<path d="M175.525 83.9612L172.968 87.3907L175.509 88.1505L175.525 83.9612Z" fill="#AB6160"/>
<path d="M177.874 89.6753L175.803 90.4243C175.95 90.6646 176.171 90.8508 176.432 90.955C176.693 91.0592 176.982 91.0758 177.253 91.0021C177.493 90.8852 177.685 90.6897 177.798 90.4483C177.911 90.2069 177.938 89.9341 177.874 89.6753Z" fill="#AB6160"/>
<path opacity="0.3" d="M177.874 89.6753L175.803 90.4243C175.95 90.6646 176.171 90.8508 176.432 90.955C176.693 91.0592 176.982 91.0758 177.253 91.0021C177.493 90.8852 177.685 90.6897 177.798 90.4483C177.911 90.2069 177.938 89.9341 177.874 89.6753Z" fill="black"/>
<path d="M176.563 90.9967C176.788 91.0635 177.028 91.0635 177.253 90.9967C177.442 90.912 177.602 90.7744 177.714 90.6006C177.826 90.4269 177.885 90.2244 177.885 90.0176C177.581 89.98 177.276 90.06 177.03 90.2411C176.784 90.4223 176.617 90.6908 176.563 90.9914V90.9967Z" fill="#AB6160"/>
<path d="M179.26 84.5016C179.26 84.65 179.216 84.795 179.133 84.9183C179.05 85.0416 178.933 85.1376 178.796 85.1941C178.659 85.2507 178.508 85.2652 178.362 85.2359C178.217 85.2065 178.084 85.1346 177.979 85.0294C177.874 84.9241 177.804 84.7901 177.775 84.6444C177.747 84.4988 177.763 84.348 177.82 84.2113C177.878 84.0745 177.974 83.9579 178.098 83.8762C178.222 83.7946 178.368 83.7515 178.516 83.7526C178.614 83.7526 178.711 83.772 178.802 83.8097C178.892 83.8474 178.975 83.9027 179.044 83.9723C179.113 84.0419 179.167 84.1245 179.205 84.2154C179.242 84.3062 179.26 84.4035 179.26 84.5016Z" fill="#263238"/>
<path d="M172.984 84.2287C172.981 84.4269 172.9 84.616 172.759 84.7552C172.618 84.8944 172.427 84.9724 172.229 84.9724C172.031 84.9724 171.84 84.8934 171.7 84.753C171.559 84.6125 171.48 84.422 171.48 84.2233C171.48 84.0247 171.559 83.8341 171.7 83.6937C171.84 83.5532 172.031 83.4743 172.229 83.4743C172.328 83.4743 172.426 83.4938 172.518 83.5317C172.609 83.5696 172.693 83.6252 172.763 83.6952C172.833 83.7653 172.888 83.8485 172.926 83.94C172.964 84.0315 172.984 84.1296 172.984 84.2287Z" fill="#263238"/>
<path d="M172.267 81.254L170.603 82.3936C170.532 82.1878 170.526 81.9653 170.586 81.756C170.645 81.5466 170.767 81.3603 170.935 81.2219C171.138 81.1025 171.37 81.0422 171.605 81.0479C171.841 81.0536 172.07 81.125 172.267 81.254Z" fill="#263238"/>
<path d="M178.671 81.1897L180.324 82.3454C180.398 82.1403 180.407 81.9178 180.35 81.7075C180.294 81.4972 180.175 81.3091 180.009 81.1683C179.806 81.0468 179.573 80.9845 179.337 80.9883C179.1 80.992 178.87 81.0618 178.671 81.1897Z" fill="#263238"/>
</g>
<defs>
<clipPath id="clip0">
<rect width="249" height="230" fill="white"/>
</clipPath>
</defs>
</svg>
